<svg xmlns="http://www.w3.org/2000/svg" xmlns:xlink="http://www.w3.org/1999/xlink" width="442.0599" height="442.0599" viewBox="0 0 442.0599 442.0599">
  <defs>
    <style>
      .cls-1 {
        isolation: isolate;
      }

      .cls-2 {
        fill: url(#linear-gradient);
      }

      .cls-3 {
        opacity: 0.75;
      }

      .cls-4 {
        fill: url(#linear-gradient-2);
      }

      .cls-5 {
        opacity: 0.4;
        mix-blend-mode: screen;
        fill: url(#linear-gradient-3);
      }

      .cls-10, .cls-6 {
        opacity: 0.15;
      }

      .cls-6 {
        mix-blend-mode: multiply;
        fill: url(#linear-gradient-4);
      }

      .cls-7 {
        fill: url(#linear-gradient-5);
      }

      .cls-8 {
        fill: #320a00;
      }

      .cls-9 {
        fill: #fcfffe;
      }

      .cls-11, .cls-12 {
        stroke: #320a00;
        stroke-miterlimit: 10;
        stroke-width: 10px;
      }

      .cls-11 {
        fill: url(#linear-gradient-6);
      }

      .cls-12 {
        fill: url(#linear-gradient-7);
      }

      .cls-13 {
        fill: none;
      }
    </style>
    <linearGradient id="linear-gradient" x1="221.03" y1="410.5029" x2="221.03" y2="28.0595" gradientUnits="userSpaceOnUse">
      <stop offset="0" stop-color="#302a24"/>
      <stop offset="0.2416" stop-color="#3c342d"/>
      <stop offset="0.6338" stop-color="#493e37"/>
      <stop offset="1" stop-color="#4d423a"/>
    </linearGradient>
    <linearGradient id="linear-gradient-2" x1="221.03" y1="383.1674" x2="221.03" y2="105.4091" gradientUnits="userSpaceOnUse">
      <stop offset="0" stop-color="#ff9500"/>
      <stop offset="0.2705" stop-color="#ffbd40"/>
      <stop offset="0.3618" stop-color="#ffb932"/>
      <stop offset="0.5322" stop-color="#ffad0f"/>
      <stop offset="0.5959" stop-color="#ffa800"/>
    </linearGradient>
    <linearGradient id="linear-gradient-3" x1="221.03" y1="383.1674" x2="221.03" y2="105.4091" gradientUnits="userSpaceOnUse">
      <stop offset="0" stop-color="#ffca80"/>
      <stop offset="0.2705" stop-color="#ffd380"/>
      <stop offset="0.5959" stop-color="#ffd380"/>
    </linearGradient>
    <linearGradient id="linear-gradient-4" x1="221.03" y1="374.5861" x2="221.03" y2="321.2961" gradientUnits="userSpaceOnUse">
      <stop offset="0.4032" stop-color="#ff7d00"/>
      <stop offset="0.6209" stop-color="#ffc240"/>
    </linearGradient>
    <linearGradient id="linear-gradient-5" x1="221.03" y1="361.6787" x2="221.03" y2="397.5187" gradientUnits="userSpaceOnUse">
      <stop offset="0.3463" stop-color="#ff7167"/>
      <stop offset="0.6116" stop-color="#ff8074"/>
      <stop offset="0.8527" stop-color="#ff9283"/>
    </linearGradient>
    <linearGradient id="linear-gradient-6" x1="313.4549" y1="132.3475" x2="313.4549" y2="77.4514" gradientTransform="translate(7.3955 -20.6936) rotate(3.6607)" xlink:href="#linear-gradient-5"/>
    <linearGradient id="linear-gradient-7" x1="214.7329" y1="138.6635" x2="214.7329" y2="83.7675" gradientTransform="matrix(-0.998, 0.0638, 0.0638, 0.998, 335.7405, -20.6936)" xlink:href="#linear-gradient-5"/>
  </defs>
  <g class="cls-1">
    <g id="Layer_1" data-name="Layer 1">
      <g>
        <path class="cls-2" d="M356.207,47.86c-.6172-10.2246-13.7978-15.8-23.2087-9.8166L277.5274,73.31A100.63,100.63,0,0,0,243.61,67.45H198.47a100.6294,100.6294,0,0,0-33.93,5.8641l-55.478-35.2706C99.6508,32.0607,86.47,37.6358,85.853,47.86l-4.9843,82.5661a12.3447,12.3447,0,0,0,5.3922,10.7341l10.3428,7.4241a15.03,15.03,0,0,0,2.4889,1.4441A101.2508,101.2508,0,0,0,97.39,168.53l-.02,128.99c0,.99.03,1.99.07,2.97.01.13.02.26.02.39.02.46.06.91.09,1.36.03.48.06.97.1,1.44.02.21.03.42.05.63.01.1.03.2.04.29.04.46.1.91.15,1.36.05.41.09.82.15,1.23.03.22.07.45.1.67.01.08.03.15.04.23.07.47.15.94.23,1.4.03.21.06.42.1.63l.15.81c.04.2.09.4.13.59.09.48.19.95.3,1.42.05.26.1.52.16.78.02.08.04.15.06.23.08.33.17.65.25.98q.18.69.36,1.38c.02.06.03.12.05.18.08.28.16.56.24.83.1.34.21.67.31,1,.14.45.27.9.42,1.34.04.14.09.29.13.43.2.58.41,1.14.62,1.71.16.44.32.88.49,1.32.04.1.08.21.12.31.26.66.53,1.31.8,1.95a1.0037,1.0037,0,0,0,.07.15c.19.46.4.91.61,1.37.27.59.54,1.19.82,1.77.05.1.1.19.15.28.22.46.46.9.69,1.35.16.29.3.59.46.88.14.25.27.5.41.75.27.48.55.96.82,1.43.1.16.19.33.28.49.12.2.24.41.36.61q.1351.21.27.42c.29.47.59.94.89,1.4.1.15.19.31.29.46.16.24.33.48.49.72.05.08.11.16.16.23.32.48.65.95.98,1.41a.0311.0311,0,0,1,.01.02c.18.25.35.49.53.74.14.18.29.37.43.56.35.47.71.94,1.07,1.41l.15.18c.12.16.24.31.36.46.15.18.31.36.46.54.49.6.98,1.19,1.49,1.77.03.04.07.08.1.12.14.16.28.31.43.47,1.67,1.87,3.44,3.67,5.29,5.37.1.09.19.18.28.26.08.07.16.15.24.22.64.58,1.29,1.14,1.95,1.69.18.15.35.31.53.46.11.09.22.18.34.27q.8551.7048,1.74,1.38c.07.05.13.11.2.16.2.15.4.31.61.46.03.02.06.05.09.07q.9.6748,1.83,1.32a1.9418,1.9418,0,0,0,.23.17,2.0335,2.0335,0,0,0,.18.13l.66.45c.45.3.9.61,1.36.91a77.0952,77.0952,0,0,0,9.81,5.42,78.9812,78.9812,0,0,0,10.64,4.02l.21.06c1.13.34,2.28.65,3.44.94.15.03.3.07.45.1,1.09.27,2.18.51,3.28.73a.836.836,0,0,1,.17.04l-.03.01a78.29,78.29,0,0,0,14.44,2.66c1.19,23.81,21.89,42.85,47.18,42.85,25.31,0,46.01-19.04,47.19-42.85a78.2551,78.2551,0,0,0,14.45-2.66l-.02-.02a79.3554,79.3554,0,0,0,27.99-11.3c.59-.38,1.17-.79,1.76-1.19.24-.17.49-.34.73-.51.65-.46,1.29-.92,1.92-1.4.04-.03.08-.05.12-.08.09-.07.17-.14.26-.2.05-.04.11-.09.16-.13q1.0949-.84,2.16-1.71c.08-.07.17-.14.26-.22.8-.66,1.59-1.34,2.36-2.04l.03-.03.03-.03a75.72,75.72,0,0,0,8-8.42c.15-.2.32-.38.47-.58l.06-.06a1.9737,1.9737,0,0,1,.13-.18c.43-.55.85-1.11,1.27-1.67.12-.16.25-.32.37-.48s.23-.33.35-.49c.02-.02.03-.05.05-.07.39-.54.76-1.08,1.13-1.63.06-.09.13-.18.2-.28.1-.16.21-.31.32-.47.09-.14.18-.29.27-.43.34-.53.68-1.06,1.02-1.6.08-.14.17-.27.25-.4.07-.12.13-.24.2-.35.11-.18.21-.37.32-.55.31-.53.62-1.05.91-1.58,0-.01,0-.01.01-.01.11-.22.23-.43.35-.65.14-.25.27-.52.4-.78.27-.51.54-1.02.8-1.53l.03-.06a1.3018,1.3018,0,0,0,.08-.17c.24-.47.45-.96.68-1.45.27-.58.54-1.16.79-1.75a.143.143,0,0,0,.02-.06c.3-.69.59-1.4.87-2.11l.09-.21c.19-.5.37-1.01.56-1.52.18-.52.38-1.03.55-1.55.05-.13.09-.26.13-.39.16-.47.3-.95.44-1.43.1-.32.21-.63.3-.95.07-.26.15-.52.22-.78.02-.06.03-.13.05-.19.13-.47.25-.95.37-1.42.09-.34.18-.67.26-1.01a1.2269,1.2269,0,0,0,.04-.16c.07-.26.11-.52.17-.78q.1647-.72.3-1.44c.04-.2.09-.39.13-.59.05-.26.1-.53.15-.79.03-.21.06-.42.1-.62.08-.48.16-.96.23-1.44.01-.07.03-.14.04-.21.03-.23.07-.45.1-.68.06-.4.09-.82.14-1.22.06-.45.12-.9.16-1.36a2.6587,2.6587,0,0,0,.03-.28c.03-.22.04-.44.06-.66.04-.47.07-.96.1-1.44q.045-.6748.09-1.35c0-.13.01-.26.01-.39.05-.97.07-1.95.07-2.93v-.03l.05-128.99a101.252,101.252,0,0,0-1.7041-18.509,15.0379,15.0379,0,0,0,2.47-1.4365l10.3428-7.4241a12.3447,12.3447,0,0,0,5.3922-10.7341ZM247.45,380.29a1.2,1.2,0,0,0-.08.2.47.47,0,0,0-.05.1,26.7318,26.7318,0,0,1-3.34,5.74,27.8861,27.8861,0,0,1-3.27,3.6,29.0148,29.0148,0,0,1-19.7,7.59c-15.1,0-27.47-11.3-28.3-25.49.98-.15,1.93-.32,2.87-.51q2.46-.48,4.74-1.08a.2893.2893,0,0,1,.09-.02c.72-.15,1.45-.33,2.2-.51a1.635,1.635,0,0,1,.21-.05c.79-.2,1.59-.43,2.4-.67.05-.02.1-.03.16-.05,1.74-.53,3.54-1.16,5.4-1.93a57.7291,57.7291,0,0,0,10.23-5.53v.01c1.32.88,2.8,1.81,4.43,2.71a57.3205,57.3205,0,0,0,5.81,2.81c.93.39,1.84.73,2.74,1.06.03.01.06.01.08.02.87.31,1.73.59,2.57.85.08.02.15.04.22.06.79.24,1.57.46,2.33.65a2.9778,2.9778,0,0,0,.29.07c.72.18,1.43.35,2.12.49.03.01.07.02.1.03q2.28.6,4.74,1.08c.93.19,1.89.36,2.86.51A25.7423,25.7423,0,0,1,247.45,380.29Z"/>
        <g class="cls-3">
          <path class="cls-4" d="M149.2317,359.8547H292.5253A76.8205,76.8205,0,0,0,325.77,296.5471v-2.84a12.5467,12.5467,0,0,0-12.51-12.51h-.13c-20.68,0-38.49-9.09-46.59-22.16-.18-.29-.36-.58-.57-.86-8.69-11.77-25.52-19.76-44.88-19.78h-.13c-19.36.02-36.19,8.01-44.88,19.78-.21.28-.39.57-.57.86-8.1,13.07-25.91,22.16-46.59,22.16h-.32a12.3461,12.3461,0,0,0-12.31,12.31v3.485A76.3737,76.3737,0,0,0,149.2317,359.8547Z"/>
          <path class="cls-5" d="M149.2317,359.8547H292.5253A76.8205,76.8205,0,0,0,325.77,296.5471v-2.84a12.5467,12.5467,0,0,0-12.51-12.51h-.13c-20.68,0-38.49-9.09-46.59-22.16-.18-.29-.36-.58-.57-.86-8.69-11.77-25.52-19.76-44.88-19.78h-.13c-19.36.02-36.19,8.01-44.88,19.78-.21.28-.39.57-.57.86-8.1,13.07-25.91,22.16-46.59,22.16h-.32a12.3461,12.3461,0,0,0-12.31,12.31v3.485A76.3737,76.3737,0,0,0,149.2317,359.8547Z"/>
          <path class="cls-6" d="M148.0581,359.2536c.6267-.0428,1.2547-.0721,1.8845-.0721H294.1064a76.5646,76.5646,0,0,0,26.1486-37.8854,71.7,71.7,0,0,1-98.22,6.28c-.34-.27-.67-.56-1-.85-.33.29-.67.57-1.01.85a71.7,71.7,0,0,1-98.22-6.28A76.603,76.603,0,0,0,148.0581,359.2536Z"/>
        </g>
        <path class="cls-7" d="M249.365,371.5187a26.3278,26.3278,0,0,1-8.64,18.41,29.0154,29.0154,0,0,1-19.7,7.59c-15.28,0-27.77-11.57-28.33-26h.01a58.3717,58.3717,0,0,0,18.09-4.31,57.5037,57.5037,0,0,0,10.24-5.53,57.0326,57.0326,0,0,0,10.23,5.53A58.4856,58.4856,0,0,0,249.365,371.5187Z"/>
        <g>
          <g>
            <path class="cls-8" d="M134.68,210.3506c-6.6825,12.3093.4944,27.0746,12.9966,31.9255,12.4953,4.8669,28.4711-.8977,32.742-14.1445,3.8356-13.4163-3.2306-28.1383-12.9965-31.9255C157.6626,192.4027,141.7981,198.21,134.68,210.3506Z"/>
            <path class="cls-8" d="M307.38,210.3506c6.6825,12.3093-.4944,27.0746-12.9965,31.9255-12.4954,4.8669-28.4712-.8977-32.7421-14.1445-3.8356-13.4163,3.2306-28.1383,12.9965-31.9255C284.3973,192.4027,300.2618,198.21,307.38,210.3506Z"/>
          </g>
          <rect class="cls-9" x="142.7125" y="206.8184" width="8.4906" height="8.0862" rx="4.0431"/>
          <rect class="cls-9" x="270.2219" y="206.8184" width="8.4906" height="8.0862" rx="4.0431"/>
        </g>
        <g>
          <g>
            <rect class="cls-8" x="157.4233" y="327.9259" width="10.2549" height="10.2549" rx="5.1274"/>
            <g>
              <rect class="cls-8" x="139.1745" y="305.2714" width="10.2549" height="10.2549" rx="5.1274"/>
              <rect class="cls-8" x="175.6722" y="305.2714" width="10.2549" height="10.2549" rx="5.1274"/>
            </g>
          </g>
          <g>
            <rect class="cls-8" x="274.3817" y="327.9259" width="10.2549" height="10.2549" rx="5.1274"/>
            <g>
              <rect class="cls-8" x="256.1329" y="305.2714" width="10.2549" height="10.2549" rx="5.1274"/>
              <rect class="cls-8" x="292.6305" y="305.2714" width="10.2549" height="10.2549" rx="5.1274"/>
            </g>
          </g>
        </g>
        <g class="cls-10">
          <path class="cls-9" d="M200.9519,280.9269a106.4,106.4,0,0,0,40.156,0c4.24-.9158,6.3489,2.3889,3.3582,5.1011a146.7345,146.7345,0,0,1-19.87,14.187,7.0414,7.0414,0,0,1-6.7622.0184,147.6479,147.6479,0,0,1-20.2117-14.18C194.5926,283.3445,196.6931,280.0057,200.9519,280.9269Z"/>
        </g>
        <g>
          <path class="cls-11" d="M293.2365,96.2672,323.9978,76.35a6.2334,6.2334,0,0,1,9.5654,5.5093l-.5033,41.1582a6.5332,6.5332,0,0,1-2.6362,5.1864l-4.6377,3.407a6.1254,6.1254,0,0,1-8.6836-1.445A98.6129,98.6129,0,0,0,306.5315,111.16,90.45,90.45,0,0,0,293.2365,96.2672Z"/>
          <path class="cls-12" d="M148.8234,96.2672,118.0621,76.35a6.2333,6.2333,0,0,0-9.5653,5.5093L109,123.0174a6.5332,6.5332,0,0,0,2.6362,5.1864l4.6377,3.407a6.1254,6.1254,0,0,0,8.6836-1.445A98.6129,98.6129,0,0,1,135.5284,111.16,90.45,90.45,0,0,1,148.8234,96.2672Z"/>
        </g>
        <path class="cls-13" d="M246.4673,371.5161q-2.46-.48-4.74-1.08c-.0334-.007-.0693-.0167-.103-.0238-.6929-.1456-1.4028-.3117-2.1257-.4921-.0952-.0237-.1868-.0434-.2825-.0678q-1.1433-.2913-2.3315-.6488c-.074-.0221-.1451-.04-.2193-.0626q-1.264-.3845-2.57-.8475c-.0259-.0092-.0508-.0163-.0766-.0256-.9043-.3232-1.82-.6726-2.7491-1.0592a56.6555,56.6555,0,0,1-5.8039-2.806c-1.6358-.9068-3.1143-1.8279-4.428-2.7166v-.006a57.5034,57.5034,0,0,1-10.238,5.5286c-1.8521.772-3.656,1.4049-5.4,1.9353-.0522.0158-.102.0284-.154.0439q-1.2228.3681-2.4.6682c-.07.0179-.1375.0323-.2078.05q-1.126.2824-2.2056.51c-.0273.0058-.0571.0139-.0844.02q-2.28.6-4.74,1.08c-.94.19-1.89.36-2.87.51h-.0052c.8306,14.1919,13.1975,25.4926,28.2971,25.4926a29.0147,29.0147,0,0,0,19.7-7.59,27.648,27.648,0,0,0,3.2732-3.596,26.5282,26.5282,0,0,0,3.3408-5.7375c.0151-.0356.0325-.07.0474-.1059.0276-.066.051-.1341.0781-.2a25.6868,25.6868,0,0,0,1.8589-8.2628h0C248.3575,371.8761,247.3975,371.7061,246.4673,371.5161Z"/>
        <path class="cls-8" d="M370.4874,129.2632l-4.98-82.56a22.1511,22.1511,0,0,0-12.42-18.36,25.6155,25.6155,0,0,0-25.29,1.14L268.5965,67.1079a12.0841,12.0841,0,0,1-8.4649,1.6933c-.6323-.1044-1.2733-.1833-1.91-.276-.5065-.0738-1.0108-.1535-1.52-.22-1.0273-.1341-2.062-.2434-3.0989-.3465-.3852-.0381-.7678-.0857-1.1543-.1194q-2.1108-.1853-4.245-.2843l-.056-.0034c-1.5059-.0678-3.0185-.1086-4.5405-.1086h-45.14a101.2394,101.2394,0,0,0-16.7341,1.3885,12.07,12.07,0,0,1-8.27-1.7167L114.2625,29.49a25.6153,25.6153,0,0,0-25.29-1.14,22.1508,22.1508,0,0,0-12.42,18.36l-4.98,82.56a21.745,21.745,0,0,0,9.31,18.98l12.29,8.68,4.2,2.97.0107,36.7236-.0156,100.8893c0,1,.03,1.99.07,2.98.01.13.02.26.02.39.03.45.06.91.09,1.36.03.48.06.96.1,1.44.02.21.03.42.05.63.01.1.03.19.04.29.04.45.1.9.16,1.35.05.41.08.83.14,1.23.03.23.07.45.1.68.01.07.03.15.04.22.07.47.15.94.23,1.41.04.21.06.42.1.63q.075.405.15.81c.04.2.09.39.13.59.09.47.19.95.3,1.41.05.26.1.53.16.79.02.07.04.15.06.23.08.32.17.65.25.97l.36,1.38a1.3316,1.3316,0,0,1,.05.19c.08.28.16.55.24.83.1.33.21.66.31,1,.14.44.27.89.42,1.34.04.14.09.28.14.43.19.57.4,1.14.61,1.71.16.44.32.88.49,1.32.04.1.08.21.12.31.26.65.53,1.3.8,1.95.02.05.05.09.07.14.2318.5328.4769,1.0658.7042,1.5988.2448.5736.51,1.1373.8,1.6894.0253.048.0506.0962.076.1418.22.45.46.9.69,1.35.16.29.3.58.46.87.14.26.27.51.41.76.27.48.55.95.82,1.43.1.16.19.32.28.48.12.21.24.41.36.61.09.15.18.28.27.43.29.47.59.94.89,1.4.1.15.19.31.29.46.16.24.33.48.49.72.05.08.11.15.16.23.32.47.65.95.98,1.41l.02.02c.17.25.35.49.52.73.14.19.29.37.43.56.35.48.71.95,1.08,1.42a2.1965,2.1965,0,0,0,.14.18c.12.15.24.3.37.45.14.19.3.37.45.55.49.6.98,1.19,1.49,1.77.03.04.07.08.1.12.14.15.29.31.43.47,1.1436,1.2805,2.35,2.51,3.5843,3.7151.0728.0712.1469.1412.22.2121.4974.4821.9846.9729,1.4957,1.4428.09.09.18.17.27.26.0852.0744.17.149.2555.2355a12.9157,12.9157,0,0,0,1.693,1.4868c.2761.197.5134.4327.7716.6477.11.09.23.18.34.27.57.47,1.15.92,1.74,1.38.07.05.13.1.2.15.2.16.41.32.61.47a.5412.5412,0,0,1,.09.07q.9.675,1.83,1.32c.07.06.15.11.23.17.06.04.12.09.19.13.21.15.43.29.65.44.45.31.9.62,1.36.92a78.7343,78.7343,0,0,0,20.45,9.44l.21.06c1.13.33,2.28.65,3.44.93.15.04.3.07.45.11,1.09.26,2.18.51,3.28.72a1.3677,1.3677,0,0,0,.17.04l-.03.01a78.5074,78.5074,0,0,0,8.2812,1.8675c.1685.0285.3477.0534.5184.0812.47.0763.9382.1531,1.4254.223,1.341.1929,2.7478.3594,4.2151.49,1.0426,20.8464,17.0487,38.0353,37.9907,41.9906.6141.1166,1.235.2142,1.8573.3077.1213.0182.2406.0427.3623.06a49.7409,49.7409,0,0,0,7.0246.4973c25.29,0,46-19.04,47.19-42.85a78.2879,78.2879,0,0,0,14.44-2.66l-.03-.01a1.3884,1.3884,0,0,0,.17-.04c1.1-.21,2.19-.46,3.28-.72.15-.04.3-.07.45-.11,1.16-.28,2.31-.6,3.44-.93l.21-.06a78.7316,78.7316,0,0,0,20.45-9.44c.46-.3.91-.61,1.36-.92.22-.15.44-.29.65-.44.07-.04.13-.09.19-.13.08-.06.16-.11.23-.17q.93-.6451,1.83-1.32a.55.55,0,0,1,.09-.07c.2-.15.41-.31.61-.47.07-.05.13-.1.2-.15.59-.46,1.17-.91,1.74-1.38.11-.09.23-.18.34-.27.2582-.2151.4955-.4507.7717-.6477a12.9287,12.9287,0,0,0,1.6929-1.4868c.0851-.0865.17-.1611.2556-.2355.09-.09.18-.17.27-.26q2.79-2.565,5.3-5.37c.14-.16.29-.32.43-.47.03-.04.07-.08.1-.12.51-.58,1-1.17,1.49-1.77.15-.18.31-.36.45-.55.13-.15.25-.3.37-.45a2.173,2.173,0,0,0,.14-.18c.37-.47.73-.94,1.08-1.42.14-.19.29-.37.43-.56.17-.24.35-.48.52-.73l.02-.02c.33-.46.66-.94.98-1.41.05-.08.11-.15.16-.23.16-.24.33-.48.49-.72.1-.15.19-.31.29-.46.3-.46.6-.93.89-1.4.09-.15.18-.28.27-.43.12-.2.24-.4.36-.61.09-.16.18-.32.28-.48.27-.48.55-.95.82-1.43.14-.25.27-.5.41-.76.16-.29.3-.58.46-.87.23-.45.47-.9.69-1.35.0252-.0456.05-.0938.0759-.1419.29-.552.5549-1.1157.8-1.6894.2273-.5329.4724-1.0659.7041-1.5987.02-.05.05-.09.07-.14.27-.65.54-1.3.8-1.95.04-.1.08-.21.12-.31.17-.44.33-.88.49-1.32.21-.57.42-1.14.61-1.71.05-.15.1-.29.14-.43.15-.45.28-.9.42-1.34.1-.34.21-.67.31-1,.08-.28.16-.55.24-.83a1.3311,1.3311,0,0,1,.05-.19q.18-.69.36-1.38c.08-.32.17-.65.25-.97.02-.08.04-.16.06-.23.06-.26.11-.53.16-.79.11-.46.21-.94.3-1.41.04-.2.09-.39.13-.59l.15-.81c.04-.21.06-.42.1-.63.08-.47.16-.94.23-1.41.01-.07.03-.15.04-.22.03-.23.07-.45.1-.68.06-.4.09-.82.14-1.23.06-.45.12-.9.16-1.35.01-.1.03-.19.04-.29.02-.21.03-.42.05-.63.04-.48.07-.96.1-1.44.03-.45.06-.91.09-1.36,0-.13.01-.26.02-.39.04-.99.07-1.98.07-2.98l-.0156-101.1619.0106-36.4652,4.2-2.97,12.29-8.68A21.7454,21.7454,0,0,0,370.4874,129.2632ZM215.4858,397.0086c-.1553-.0293-.3075-.0666-.4618-.0983-.301-.0622-.6028-.1223-.9-.1936l-.0162-.0042a28.7568,28.7568,0,0,1-12.7549-6.7722,27.8126,27.8126,0,0,1-3.27-3.6,26.3234,26.3234,0,0,1-3.34-5.74c-.02-.03-.03-.07-.05-.1-.03-.07-.05-.14-.08-.2a26.0169,26.0169,0,0,1-1.86-8.27c.97-.15,1.93-.32,2.86-.51q2.46-.48,4.74-1.08a.4311.4311,0,0,0,.11-.02c.69-.15,1.4-.31,2.12-.49.1-.03.19-.05.29-.07.76-.2,1.54-.41,2.33-.65.07-.02.14-.04.22-.06.84-.26,1.7-.54,2.57-.85.02-.01.05-.02.07-.03.91-.32,1.82-.67,2.75-1.05a57.3391,57.3391,0,0,0,5.81-2.81c1.6272-.9084,3.1045-1.8267,4.4128-2.7152,1.3058.8865,2.7794,1.8021,4.4022,2.7081a57.3329,57.3329,0,0,0,5.81,2.81c.7132.2915,1.41.5491,2.109.8052.2239.0826.4535.1808.6758.26.0125.0051.0252.01.0352.0151.87.31,1.73.59,2.57.85.08.02.15.04.22.06.79.24,1.57.45,2.33.65.1.02.19.04.29.07.72.18,1.43.34,2.12.49a.5.5,0,0,0,.0979.0178.1986.1986,0,0,0,.0371.0093q2.28.6,4.74,1.08c.9284.1877,1.8676.355,2.8349.5037a26.0226,26.0226,0,0,1-1.86,8.2692c-.03.06-.05.13-.08.2-.02.03-.03.07-.05.1a26.327,26.327,0,0,1-3.34,5.74,27.8206,27.8206,0,0,1-3.27,3.6,29.0147,29.0147,0,0,1-19.7,7.59,29.7309,29.7309,0,0,1-5.397-.4938C215.5691,397.0217,215.5269,397.0164,215.4858,397.0086ZM350.1574,132.8932l-21.3536,14.2212a6.7676,6.7676,0,0,0-3.0164,5.6327v23.3661l-.0044,13.5549-.0088,0,.0017,21.42-.0285,86.4254c0,.87-.03,1.73-.07,2.58-.01.14-.01.29-.02.43-.02.39-.07.78-.1,1.17-.04.54-.07,1.09-.13,1.62-.06.56-.14,1.1-.22,1.65-.05.37-.09.74-.15,1.1-.15.91-.32,1.82-.51,2.72-.03.16-.08.32-.12.48-.12.55-.26,1.1-.4,1.65-.04.18-.08.36-.13.54-.09.34-.2.68-.3,1.03-.13.45-.26.89-.4,1.33-.03.09-.05.17-.08.25-.14.43-.3.86-.45,1.28-.15.43-.29.85-.45,1.27-.19.5-.4.98-.6,1.47-.13.32-.26.64-.4.96a.4773.4773,0,0,0-.03.07c-.23.52-.48,1.03-.72,1.55-.15.3-.28.6-.43.9l-.39.75c-.13.25-.27.5-.4.74-.13.23-.25.47-.37.7q-.2252.39-.45.78c-.23.39-.46.78-.7,1.16-.11.17-.21.35-.31.52-.08.12-.16.26-.24.38-.43.67-.87,1.32-1.32,1.97-.15.2-.3.41-.45.61-.17.24-.34.47-.52.7-.19.26-.37.51-.57.76-.14.18-.27.37-.42.55-.2.26-.42.51-.63.76-.3.37-.6.75-.91,1.11-.09.1-.18.19-.26.29-.47.53-.94,1.05-1.42,1.56-.1615.1614-.3127.3331-.4746.4945-.5094.5078-1.0118,1.0224-1.5257,1.5255-.08.0781-.16.15-.24.23-.6.57-1.22,1.13-1.85,1.68-.13.12-.27.23-.41.35-.51.44-1.04.87-1.57,1.3-.16.12-.31.25-.47.37-.01.01-.02.02-.03.02q-1.98,1.545-4.09,2.92c-.17.11-.34.22-.52.33-.59.38-1.19.74-1.8,1.1-.14.08-.27.16-.4.24q-1.11.645-2.25,1.23c-.12.07-.25.13-.37.19-.57.29-1.14.57-1.72.84a2.4246,2.4246,0,0,0-.23.11c-.2.09-.39.18-.59.27-.72.33-1.46.65-2.2.95a1.0139,1.0139,0,0,0-.15.07c-.36.14-.72.26-1.08.4-.45.17-.89.35-1.35.51-.2.07-.39.13-.59.2-.65.22-1.31.44-1.97.64l-.6.18c-.83.24-1.67.47-2.52.68-.09.03-.2.05-.29.07-.62.15-1.24.28-1.87.41-.13.03-.26.06-.4.09-.24.05-.48.09-.72.14-.7.13-1.42.25-2.14.36-.16.03-.33.06-.49.08-.87.13-1.74.23-2.62.32-.22.02-.43.04-.64.06q-1.05.09-2.1.15c-.25.01-.5.03-.76.04-.84.03-1.69.06-2.55.06h-3.46c-1.5-.04-3.17-.12-4.98-.29a2.2816,2.2816,0,0,1-.27-.02h-.04c-.48-.05-.98-.1-1.48-.16-.04-.01-.08-.01-.12-.02-.11-.01-.22-.02-.33-.04-.2272-.0246-.4621-.0562-.6941-.086-.0941-.0123-.1847-.0246-.2809-.037-.17-.02-.35-.05-.52-.08q-.4629-.0644-.926-.1373l-.1945-.0294c-.0631-.0123-.129-.0209-.1927-.0316-.0672-.0129-.132-.0233-.2018-.0388-.03,0-.06-.01-.09-.01-.4135-.0752-.8282-.1432-1.25-.2256-.1815-.0354-.363-.0743-.5447-.1073-.2339-.0439-.4756-.0956-.7163-.1462-.13-.0277-.258-.0529-.3888-.0809l-.0089-.0013c-.2124-.0461-.4248-.0974-.646-.1416-.34-.08-.68-.16-1.03-.24l-.75-.18c-.34-.09-.69-.18-1.03-.28-.26-.06-.52-.14-.78-.21-.3-.08-.59-.17-.88-.25-.06-.02-.13-.04-.19-.06-.26-.08-.51-.15-.77-.23-.38-.12-.75-.24-1.13-.37-.25-.08-.49-.16-.73-.25a2.2512,2.2512,0,0,1-.24-.08c-.33-.11-.66-.23-.99-.35-.22-.08-.43-.16-.65-.24-.37-.14-.74-.29-1.1-.44a2.3224,2.3224,0,0,1-.28-.11c-.18-.07-.35-.14-.53-.21-.15-.06-.3-.13-.44-.19a13.685,13.685,0,0,1-2.3-1.31,14.2439,14.2439,0,0,1-2.75-2.55,21.3185,21.3185,0,0,1-4.6-11.75c-.03-.47-.05-.93-.05-1.38v-.03a21.8759,21.8759,0,0,1,5.29-14.03c.04-.05.1-.1.14-.15.37-.41.75-.81,1.12-1.21.06-.06.11-.11.17-.17.31-.33.61-.65.92-.96.07-.07.14-.14.2-.21.33-.34.65-.67.97-.98.11-.12.22-.23.33-.34.2-.19.39-.38.58-.57,1.39-1.36,2.56-2.45,3.3-3.12l.09-.09c.09-.08.18-.16.25-.23a.27.27,0,0,0,.06-.05c.08-.07.16-.14.22-.2.07-.06.11-.1.15-.13l.01-.01c.02-.02.02-.02.03-.02a.1439.1439,0,0,0,.02-.03c.43-.37.84-.73,1.25-1.08,1.6-1.4,3.03-2.62,4.29-3.69.94-.8,1.8-1.52,2.57-2.18h-.02a14.3642,14.3642,0,0,0,1.36-1.11,1.0809,1.0809,0,0,0,.11-.09,13.4664,13.4664,0,0,0,1.18-1.21c.05-.05.1-.11.15-.16.36-.42.7-.86,1.02-1.31.05-.07.11-.15.16-.22.31-.45.6-.93.87-1.41.04-.08.09-.17.13-.25.26-.49.5-1,.72-1.52.03-.08.07-.17.1-.25.21-.54.4-1.08.57-1.64.02-.08.04-.15.06-.23a17.4267,17.4267,0,0,0,.4-1.77c.01-.05.01-.1.02-.15a17.7575,17.7575,0,0,0,.22-1.94c.02-.37.03-.74.03-1.12a18.42,18.42,0,0,0-.71-5.13,16.2666,16.2666,0,0,0-.53-1.58c-.18-.47-.38-.92-.6-1.36-.06-.13-.13-.26-.2-.39-.17-.32-.34-.64-.53-.95-.07-.12-.15-.25-.22-.37a17.0419,17.0419,0,0,0-1.74-2.29c-.1-.11-.19-.21-.29-.31-.24-.26-.5-.5-.75-.74-.11-.1-.21-.2-.31-.29a16.2567,16.2567,0,0,0-2.28-1.67c-.11-.07-.24-.14-.36-.21-.1431-.0811-.292-.1524-.4386-.2289-.0788-.0425-.1586-.0829-.238-.124-.0817-.0411-.1615-.0874-.2436-.1271-.13-.06-.25-.12-.38-.18-.4315-.1929-.8762-.3667-1.3308-.52a14.6829,14.6829,0,0,0-3.4124-.7143c-.3442-.0281-.692-.05-1.0415-.0581-.0908-.0017-.1792-.0151-.27-.0151-1.622.1828-3.2395.3369-4.8558.4735-.2133.0177-.4265.0363-.64.0532q-2.1951.1776-4.39.3014c-.539.03-1.0782.0541-1.6174.08q-1.3659.0672-2.7319.1142c-.606.0223-1.2119.0444-1.8175.0614-1.5491.0394-3.098.0662-4.6471.0662q-1.9286,0-3.8631-.0486l-.0142,0q-1.94-.047-3.8827-.1312-4.5165-.1885-9.0293-.586-1.4151-.1275-2.8327-.2762c-.3526-.037-.7054-.0684-1.058-.1078h-.01c-.49,0-.98.04-1.46.08l-.1206.0172-.0032,0-.2963.0424c-.36.04-.71.1-1.05.17-.14.03-.28.05-.41.09a14.31,14.31,0,0,0-2.68.9c-.13.06-.25.12-.38.18-.31.15-.62.31-.92.48-.12.07-.25.14-.36.21a16.2616,16.2616,0,0,0-2.28,1.67c-.1.09-.2.19-.31.29-.25.24-.51.48-.75.74-.1.1-.19.2-.29.31a17.0483,17.0483,0,0,0-1.74,2.29c-.07.12-.15.25-.22.37-.19.31-.36.63-.53.95-.07.13-.14.26-.2.39-.22.44-.42.89-.6,1.36a16.3213,16.3213,0,0,0-.53,1.58,18.4236,18.4236,0,0,0-.71,5.13c0,.38.01.75.03,1.12a17.733,17.733,0,0,0,.22,1.94c.01.05.01.1.02.15a17.48,17.48,0,0,0,.4,1.77c.02.08.04.15.06.23.17.56.36,1.1.57,1.64.03.08.07.17.1.25.22.52.46,1.03.72,1.52.04.08.09.17.13.25.27.48.56.96.87,1.41.05.07.11.15.16.22.32.45.66.89,1.02,1.31.05.05.1.11.15.16.19.2212.4047.4157.607.6224.0411.0419.0814.0846.1229.126.1521.1514.29.3166.45.4616a1.0593,1.0593,0,0,0,.11.09c.0857.08.1833.144.2713.2213.1371.1192.28.2294.4206.3434.2238.1816.4374.3783.6682.5453h-.02c.77.66,1.63,1.38,2.57,2.18,1.26,1.07,2.69,2.29,4.29,3.69.41.35.82.71,1.25,1.08a.1439.1439,0,0,0,.02.03c.01,0,.01,0,.03.02l.01.01c.04.03.08.07.15.13.06.06.14.13.22.2a.2648.2648,0,0,0,.06.05c.07.07.16.15.25.23l.09.09c.74.67,1.91,1.76,3.3,3.12.19.19.38.38.58.57.11.11.22.22.33.34.32.31.64.64.97.98.06.07.13.14.2.21.31.31.61.63.92.96l.17.17c.37.4.75.8,1.12,1.21.04.05.1.1.14.15a21.8773,21.8773,0,0,1,5.29,14.03v.03c0,.45-.02.91-.05,1.38a21.3185,21.3185,0,0,1-4.6,11.75,14.2379,14.2379,0,0,1-2.75,2.55,13.685,13.685,0,0,1-2.3,1.31c-.14.06-.29.13-.44.19-.18.07-.35.14-.53.21a2.3371,2.3371,0,0,1-.28.11c-.36.15-.73.3-1.1.44-.22.08-.43.16-.65.24-.33.12-.66.24-.99.35a2.2562,2.2562,0,0,1-.24.08c-.24.09-.48.17-.73.25-.38.13-.75.25-1.13.37-.26.08-.51.15-.77.23-.06.02-.13.04-.19.06-.29.08-.58.17-.88.25-.26.07-.52.15-.78.21-.34.1-.69.19-1.03.28l-.75.18c-.35.08-.69.16-1.03.24-.25.05-.49.11-.73.16a.4331.4331,0,0,0-.05.01c-.33.07-.66.14-.98.2-.22.04-.44.09-.66.13-.36.06-.71.13-1.05.19-.21.03-.41.06-.61.1-.36.06-.72.11-1.08.16-.17.03-.35.06-.52.08-.39.05-.76.1-1.14.15-.14.01-.27.03-.41.05-.41.04-.81.09-1.2.13-.1,0-.2.02-.3.03-.31.02-.6.05-.91.07-.12.01-.25.03-.37.03-.05.01-.11.01-.16.02-.38.03-.75.05-1.11.07a1.7928,1.7928,0,0,0-.24.02h-.04c-.23.01-.45.02-.67.03-.36.01-.71.03-1.05.04-.3.01-.6.02-.88.02h-3.07q-1.35,0-2.7-.06c-.25-.01-.51-.03-.76-.04-.7-.04-1.4-.09-2.09-.15-.22-.02-.43-.04-.65-.06-.87-.09-1.75-.19-2.61-.32-.07-.0082-.1392-.0219-.2089-.0328-.0829-.0138-.1656-.0251-.246-.04-.72-.11-1.44-.23-2.14-.36-.24-.05-.48-.09-.72-.14-.14-.03-.27-.06-.4-.09-.5029-.1038-.9975-.2133-1.4926-.3273-.1343-.0316-.2677-.0575-.4025-.09l-.046-.01a2.0422,2.0422,0,0,1-.219-.0529c-.85-.21-1.69-.44-2.52-.68l-.5715-.1715-.0386-.0118c-.6565-.1991-1.3134-.4178-1.96-.6368-.2-.07-.39-.13-.59-.2-.46-.16-.9-.34-1.35-.51-.36-.14-.72-.26-1.08-.4a1.01,1.01,0,0,0-.15-.07c-.74-.3-1.48-.62-2.2-.95-.2-.09-.39-.18-.59-.27a2.4134,2.4134,0,0,0-.23-.11c-.58-.27-1.15-.55-1.72-.84-.12-.06-.25-.12-.37-.19q-1.14-.585-2.25-1.23c-.13-.08-.26-.16-.4-.24-.61-.36-1.21-.72-1.8-1.1-.18-.11-.35-.22-.52-.33q-2.1151-1.38-4.09-2.92c-.01,0-.02-.01-.03-.02-.16-.12-.31-.25-.47-.37-.53-.43-1.06-.86-1.57-1.3-.14-.12-.28-.23-.41-.35-.63-.55-1.25-1.11-1.85-1.68-.08-.08-.16-.1519-.2395-.23-.5141-.503-1.0165-1.0177-1.5259-1.5254-.1619-.1614-.313-.333-.4746-.4945-.48-.51-.95-1.03-1.42-1.56-.08-.1-.17-.19-.26-.29-.31-.36-.61-.74-.91-1.11-.21-.25-.43-.5-.63-.76-.15-.18-.28-.37-.42-.55-.2-.25-.38-.5-.57-.76-.18-.23-.35-.46-.52-.7-.15-.2-.3-.41-.45-.61-.45-.65-.89-1.3-1.32-1.97-.08-.12-.16-.26-.24-.38-.1-.17-.2-.35-.31-.52-.24-.38-.47-.77-.7-1.16q-.2249-.39-.45-.78c-.12-.23-.24-.47-.37-.7-.13-.24-.27-.49-.4-.74l-.39-.75c-.15-.3-.28-.6-.43-.9-.24-.52-.49-1.03-.72-1.55a.4737.4737,0,0,0-.03-.07c-.14-.32-.27-.64-.4-.96-.2-.49-.41-.97-.6-1.47-.16-.42-.3-.84-.45-1.27-.15-.42-.31-.85-.45-1.28-.03-.08-.05-.16-.08-.25-.14-.44-.27-.88-.4-1.33-.1-.35-.21-.69-.3-1.03-.05-.18-.09-.36-.13-.54-.14-.55-.28-1.1-.4-1.65-.04-.16-.09-.32-.12-.48-.19-.9-.36-1.81-.51-2.72-.06-.36-.1-.73-.15-1.1-.08-.55-.16-1.09-.22-1.65-.06-.53-.09-1.08-.13-1.62-.03-.39-.08-.78-.1-1.17-.01-.14-.01-.29-.02-.43-.04-.85-.07-1.71-.07-2.58l-.0285-86.2818.0018-23.7636h-.01l-.0037-11.3546V152.7542a6.7677,6.7677,0,0,0-3.0163-5.6327L91.9024,132.9a3.0216,3.0216,0,0,1-1.47-2.49l4.99-82.56a3.5232,3.5232,0,0,1,2.14-2.66,6.73,6.73,0,0,1,6.56.25l50.43,32.05L169.386,87.15a11.8441,11.8441,0,0,0,9.302,1.6209c1.034-.257,2.0776-.4894,3.1269-.7063q.2372-.0492.475-.0968c1.0539-.2113,2.1137-.4068,3.1826-.5772q1.544-.2482,3.106-.4374c.0516-.0063.103-.0128.1545-.019q3.1482-.378,6.3654-.5133l.1084-.0045q1.6148-.0644,3.2456-.0658h45.14c1.3362,0,2.6638.0368,3.9846.1006.2134.01.4252.0267.6382.0387q1.5729.0882,3.1291.2373c.3605.0343.7206.07,1.08.1089.9036.0974,1.8011.2142,2.6955.3407.387.0551.7762.1031,1.1617.1636,1.0145.1583,2.021.3408,3.0231.5358,1.367.2658,2.7259.5542,4.0675.8877a11.8446,11.8446,0,0,0,9.3019-1.6209l14.8336-9.66,50.43-32.05a6.73,6.73,0,0,1,6.56-.25,3.523,3.523,0,0,1,2.14,2.66l4.99,82.56A3.022,3.022,0,0,1,350.1574,132.8932Z"/>
      </g>
    </g>
  </g>
</svg>
