<svg xmlns="http://www.w3.org/2000/svg" xmlns:xlink="http://www.w3.org/1999/xlink" width="442.0599" height="442.0599" viewBox="0 0 442.0599 442.0599">
  <defs>
    <style>
      .cls-1 {
        isolation: isolate;
      }

      .cls-2 {
        fill: url(#linear-gradient);
      }

      .cls-3 {
        opacity: 0.75;
      }

      .cls-4 {
        fill: url(#linear-gradient-2);
      }

      .cls-5 {
        opacity: 0.4;
        mix-blend-mode: screen;
        fill: url(#linear-gradient-3);
      }

      .cls-10, .cls-6 {
        opacity: 0.15;
      }

      .cls-6 {
        mix-blend-mode: multiply;
        fill: url(#linear-gradient-4);
      }

      .cls-7 {
        fill: url(#linear-gradient-5);
      }

      .cls-8 {
        fill: #320a00;
      }

      .cls-9 {
        fill: #fcfffe;
      }

      .cls-11 {
        fill: url(#linear-gradient-6);
      }

      .cls-12 {
        fill: none;
        stroke: #320a00;
        stroke-miterlimit: 10;
        stroke-width: 18.9px;
      }

      .cls-13 {
        fill: url(#linear-gradient-7);
      }
    </style>
    <linearGradient id="linear-gradient" x1="221.1425" y1="401.5776" x2="219.5656" y2="82.2507" gradientUnits="userSpaceOnUse">
      <stop offset="0" stop-color="#826048"/>
      <stop offset="0.629" stop-color="#c5ad99"/>
      <stop offset="0.9898" stop-color="#e8d5c3"/>
    </linearGradient>
    <linearGradient id="linear-gradient-2" x1="220.3098" y1="383.1674" x2="220.3098" y2="105.4091" gradientUnits="userSpaceOnUse">
      <stop offset="0" stop-color="#ff9500"/>
      <stop offset="0.2705" stop-color="#ffbd40"/>
      <stop offset="0.3618" stop-color="#ffb932"/>
      <stop offset="0.5322" stop-color="#ffad0f"/>
      <stop offset="0.5959" stop-color="#ffa800"/>
    </linearGradient>
    <linearGradient id="linear-gradient-3" x1="220.3098" y1="383.1674" x2="220.3098" y2="105.4091" gradientUnits="userSpaceOnUse">
      <stop offset="0" stop-color="#ffca80"/>
      <stop offset="0.2705" stop-color="#ffd380"/>
      <stop offset="0.5959" stop-color="#ffd380"/>
    </linearGradient>
    <linearGradient id="linear-gradient-4" x1="220.3098" y1="374.5861" x2="220.3098" y2="321.2961" gradientUnits="userSpaceOnUse">
      <stop offset="0.4032" stop-color="#ff7d00"/>
      <stop offset="0.6209" stop-color="#ffc240"/>
    </linearGradient>
    <linearGradient id="linear-gradient-5" x1="220.3098" y1="361.6787" x2="220.3098" y2="397.5187" gradientUnits="userSpaceOnUse">
      <stop offset="0.3463" stop-color="#ff7167"/>
      <stop offset="0.6116" stop-color="#ff8074"/>
      <stop offset="0.8527" stop-color="#ff9283"/>
    </linearGradient>
    <linearGradient id="linear-gradient-6" x1="-3641.6446" y1="350.7018" x2="-3641.6446" y2="148.5643" gradientTransform="matrix(-1, 0, 0, 1, -3271.9339, 0)" gradientUnits="userSpaceOnUse">
      <stop offset="0" stop-color="#826048"/>
      <stop offset="0.1286" stop-color="#9d7f69"/>
      <stop offset="0.2852" stop-color="#b89e89"/>
      <stop offset="0.4471" stop-color="#cdb6a3"/>
      <stop offset="0.6145" stop-color="#dcc7b5"/>
      <stop offset="0.7905" stop-color="#e5d2c0"/>
      <stop offset="0.9898" stop-color="#e8d5c3"/>
    </linearGradient>
    <linearGradient id="linear-gradient-7" x1="473.0014" y1="348.8135" x2="473.0014" y2="146.6759" gradientTransform="translate(-402.0925)" gradientUnits="userSpaceOnUse">
      <stop offset="0" stop-color="#826048"/>
      <stop offset="0.0919" stop-color="#94745e"/>
      <stop offset="0.2724" stop-color="#b29782"/>
      <stop offset="0.4538" stop-color="#cab29e"/>
      <stop offset="0.6343" stop-color="#dbc6b3"/>
      <stop offset="0.8134" stop-color="#e5d1bf"/>
      <stop offset="0.9898" stop-color="#e8d5c3"/>
    </linearGradient>
  </defs>
  <g class="cls-1">
    <g id="Layer_1" data-name="Layer 1">
      <path class="cls-2" d="M242.89,67.45H197.75A101.1889,101.1889,0,0,0,96.67,168.53l-.02,128.99c0,.99.03,1.99.07,2.97.01.13.02.26.02.39.02.46.06.91.09,1.36.03.48.06.97.1,1.44.02.21.03.42.05.63.01.1.03.2.04.29.04.46.1.91.15,1.36.05.41.09.82.15,1.23.03.22.07.45.1.67.01.08.03.15.04.23.07.47.15.94.23,1.4.03.21.06.42.1.63l.15.81c.04.2.09.4.13.59.09.48.19.95.3,1.42.05.26.1.52.16.78.02.08.04.15.06.23.08.33.17.65.25.98q.18.69.36,1.38c.02.06.03.12.05.18.08.28.16.56.24.83.1.34.21.67.31,1,.14.45.27.9.42,1.34.04.14.09.29.13.43.2.58.41,1.14.62,1.71.16.44.32.88.49,1.32.04.1.08.21.12.31.26.66.53,1.31.8,1.95a1.0082,1.0082,0,0,0,.07.15c.19.46.4.91.61,1.37.27.59.54,1.19.82,1.77.05.1.1.19.15.28.22.46.46.9.69,1.35.16.29.3.59.46.88.14.25.27.5.41.75.27.48.55.96.82,1.43.1.16.19.33.28.49.12.2.24.41.36.61q.1351.21.27.42c.29.47.59.94.89,1.4.1.15.19.31.29.46.16.24.33.48.49.72.05.08.11.16.16.23.32.48.65.95.98,1.41a.0311.0311,0,0,1,.01.02c.18.25.35.49.53.74.14.18.29.37.43.56.35.47.71.94,1.07,1.41l.15.18c.12.16.24.31.36.46.15.18.31.36.46.54.49.6.98,1.19,1.49,1.77.03.04.07.08.1.12.14.16.28.31.43.47,1.67,1.87,3.44,3.67,5.29,5.37.1.09.19.18.28.26.08.07.16.15.24.22.64.58,1.29,1.14,1.95,1.69.18.15.35.31.53.46.11.09.22.18.34.27q.8552.7048,1.74,1.38c.07.05.13.11.2.16.2.15.4.31.61.46.03.02.06.05.09.07q.9.6748,1.83,1.32a1.9336,1.9336,0,0,0,.23.17,2.0335,2.0335,0,0,0,.18.13l.66.45c.45.3.9.61,1.36.91a77.0964,77.0964,0,0,0,9.81,5.42,78.9812,78.9812,0,0,0,10.64,4.02l.21.06c1.13.34,2.28.65,3.44.94.15.03.3.07.45.1,1.09.27,2.18.51,3.28.73a.8351.8351,0,0,1,.17.04l-.03.01a78.2906,78.2906,0,0,0,14.44,2.66c1.19,23.81,21.89,42.85,47.18,42.85,25.31,0,46.01-19.04,47.19-42.85a78.2551,78.2551,0,0,0,14.45-2.66l-.02-.02a79.3563,79.3563,0,0,0,27.99-11.3c.59-.38,1.17-.79,1.76-1.19.24-.17.49-.34.73-.51.65-.46,1.29-.92,1.92-1.4.04-.03.08-.05.12-.08.09-.07.17-.14.26-.2.05-.04.11-.09.16-.13q1.095-.84,2.16-1.71c.08-.07.17-.14.26-.22.8-.66,1.59-1.34,2.36-2.04l.03-.03.03-.03a75.72,75.72,0,0,0,8-8.42c.15-.2.32-.38.47-.58l.06-.06a1.9915,1.9915,0,0,1,.13-.18c.43-.55.85-1.11,1.27-1.67.12-.16.25-.32.37-.48s.23-.33.35-.49c.02-.02.03-.05.05-.07.39-.54.76-1.08,1.13-1.63.06-.09.13-.18.2-.28.1-.16.21-.31.32-.47.09-.14.18-.29.27-.43.34-.53.68-1.06,1.02-1.6.08-.14.17-.27.25-.4.07-.12.13-.24.2-.35.11-.18.21-.37.32-.55.31-.53.62-1.05.91-1.58,0-.01,0-.01.01-.01.11-.22.23-.43.35-.65.14-.25.27-.52.4-.78.27-.51.54-1.02.8-1.53l.03-.06a1.29,1.29,0,0,0,.08-.17c.24-.47.45-.96.68-1.45.27-.58.54-1.16.79-1.75a.1426.1426,0,0,0,.02-.06c.3-.69.59-1.4.87-2.11l.09-.21c.19-.5.37-1.01.56-1.52.18-.52.38-1.03.55-1.55.05-.13.09-.26.13-.39.16-.47.3-.95.44-1.43.1-.32.21-.63.3-.95.07-.26.15-.52.22-.78.02-.06.03-.13.05-.19.13-.47.25-.95.37-1.42.09-.34.18-.67.26-1.01a1.2269,1.2269,0,0,0,.04-.16c.07-.26.11-.52.17-.78q.1647-.72.3-1.44c.04-.2.09-.39.13-.59.05-.26.1-.53.15-.79.03-.21.06-.42.1-.62.08-.48.16-.96.23-1.44.01-.07.03-.14.04-.21.03-.23.07-.45.1-.68.06-.4.09-.82.14-1.22.06-.45.12-.9.16-1.36a2.6584,2.6584,0,0,0,.03-.28c.03-.22.04-.44.06-.66.04-.47.07-.96.1-1.44q.045-.6748.09-1.35c0-.13.01-.26.01-.39.05-.97.07-1.95.07-2.93v-.03l.05-128.99A101.189,101.189,0,0,0,242.89,67.45Zm3.84,312.84a1.19,1.19,0,0,0-.08.2.4724.4724,0,0,0-.05.1,26.7314,26.7314,0,0,1-3.34,5.74,27.8936,27.8936,0,0,1-3.27,3.6,29.0154,29.0154,0,0,1-19.7,7.59c-15.1,0-27.47-11.3-28.3-25.49.98-.15,1.93-.32,2.87-.51q2.46-.48,4.74-1.08a.2934.2934,0,0,1,.09-.02c.72-.15,1.45-.33,2.2-.51a1.6375,1.6375,0,0,1,.21-.05c.79-.2,1.59-.43,2.4-.67.05-.02.1-.03.16-.05,1.74-.53,3.54-1.16,5.4-1.93a57.7357,57.7357,0,0,0,10.23-5.53v.01c1.32.88,2.8,1.81,4.43,2.71a57.3205,57.3205,0,0,0,5.81,2.81c.93.39,1.84.73,2.74,1.06.03.01.06.01.08.02.87.31,1.73.59,2.57.85.08.02.15.04.22.06.79.24,1.57.46,2.33.65a2.9778,2.9778,0,0,0,.29.07c.72.18,1.43.35,2.12.49.03.01.07.02.1.03q2.28.6,4.74,1.08c.93.19,1.89.36,2.86.51A25.74,25.74,0,0,1,246.73,380.29Z"/>
      <g class="cls-3">
        <path class="cls-4" d="M148.5116,359.8547H291.8052A76.8205,76.8205,0,0,0,325.05,296.5471v-2.84a12.5467,12.5467,0,0,0-12.51-12.51h-.13c-20.68,0-38.49-9.09-46.59-22.16-.18-.29-.36-.58-.57-.86-8.69-11.77-25.52-19.76-44.88-19.78h-.13c-19.36.02-36.19,8.01-44.88,19.78-.21.28-.39.57-.57.86-8.1,13.07-25.91,22.16-46.59,22.16h-.32a12.3461,12.3461,0,0,0-12.31,12.31v3.485A76.3735,76.3735,0,0,0,148.5116,359.8547Z"/>
        <path class="cls-5" d="M148.5116,359.8547H291.8052A76.8205,76.8205,0,0,0,325.05,296.5471v-2.84a12.5467,12.5467,0,0,0-12.51-12.51h-.13c-20.68,0-38.49-9.09-46.59-22.16-.18-.29-.36-.58-.57-.86-8.69-11.77-25.52-19.76-44.88-19.78h-.13c-19.36.02-36.19,8.01-44.88,19.78-.21.28-.39.57-.57.86-8.1,13.07-25.91,22.16-46.59,22.16h-.32a12.3461,12.3461,0,0,0-12.31,12.31v3.485A76.3735,76.3735,0,0,0,148.5116,359.8547Z"/>
        <path class="cls-6" d="M147.3379,359.2536c.6268-.0428,1.2548-.0721,1.8846-.0721H293.3863a76.5638,76.5638,0,0,0,26.1485-37.8854,71.7,71.7,0,0,1-98.22,6.28c-.34-.27-.67-.56-1-.85-.33.29-.67.57-1.01.85a71.7,71.7,0,0,1-98.22-6.28A76.6034,76.6034,0,0,0,147.3379,359.2536Z"/>
      </g>
      <path class="cls-7" d="M248.6449,371.5187a26.3279,26.3279,0,0,1-8.64,18.41,29.0151,29.0151,0,0,1-19.7,7.59c-15.28,0-27.77-11.57-28.33-26h.01a58.3706,58.3706,0,0,0,18.09-4.31,57.4967,57.4967,0,0,0,10.24-5.53,57.0338,57.0338,0,0,0,10.23,5.53A58.4856,58.4856,0,0,0,248.6449,371.5187Z"/>
      <g>
        <g>
          <path class="cls-8" d="M133.96,210.3506c-6.6825,12.3093.4944,27.0746,12.9965,31.9255,12.4954,4.8669,28.4712-.8977,32.742-14.1445,3.8357-13.4163-3.2305-28.1383-12.9965-31.9255C156.9425,192.4027,141.078,198.21,133.96,210.3506Z"/>
          <path class="cls-8" d="M306.66,210.3506c6.6825,12.3093-.4944,27.0746-12.9966,31.9255-12.4953,4.8669-28.4711-.8977-32.742-14.1445-3.8357-13.4163,3.2306-28.1383,12.9965-31.9255C283.6772,192.4027,299.5417,198.21,306.66,210.3506Z"/>
        </g>
        <rect class="cls-9" x="141.9923" y="206.8184" width="8.4906" height="8.0862" rx="4.0431"/>
        <rect class="cls-9" x="269.5018" y="206.8184" width="8.4906" height="8.0862" rx="4.0431"/>
      </g>
      <path class="cls-8" d="M282.8162,76.2213q-1.28-.55-2.58-1.0656c-.271-.1082-.5445-.2117-.8165-.3177q-.9053-.3526-1.8181-.6906-.4734-.1746-.9494-.3442-.89-.3186-1.7884-.6212c-.3029-.1023-.6049-.206-.9091-.3058q-1.0811-.3544-2.1734-.6854c-.1753-.0534-.3489-.11-.5244-.1629q-1.3517-.4038-2.7192-.7723c-.253-.0683-.5081-.1313-.7617-.1978q-1-.2625-2.0074-.5079c-.3286-.0795-.6584-.1557-.9883-.2321q-.9257-.2147-1.8581-.4134c-.3323-.0708-.6646-.1419-.9981-.21q-1.0213-.2075-2.05-.394c-.263-.0481-.5247-.1-.7884-.1463q-1.4144-.2481-2.8415-.4608c-.1892-.0281-.38-.051-.57-.0781q-1.1517-.1644-2.3115-.3061c-.3306-.04-.6629-.0754-.9947-.1124q-.9711-.1083-1.9475-.2-.5285-.0492-1.0578-.0941-1.0071-.0842-2.02-.1482c-.3128-.02-.6243-.0435-.9378-.0611-.98-.0551-1.9636-.1007-2.9511-.13q-1.6158-.0474-3.2432-.0476h-39.37a108.0406,108.0406,0,0,0-35.053,5.808q-1.8435.6312-3.6533,1.3264-4.512,1.7318-8.8048,3.8493a33.21,33.21,0,0,1,6.7036,16.9983,87.8346,87.8346,0,0,1,40.8077-9.982h39.37a89.2771,89.2771,0,0,1,11.2876.7137c1.1372.1449,2.2649.3187,3.3874.5063.32.0535.6392.1115.9585.1685q1.3.2319,2.5852.5015c.28.0586.5606.1136.8391.1748q1.6443.3615,3.2649.7808c.1951.0507.387.1075.5813.1595q1.3492.3612,2.68.7635.47.142.9373.2889,1.3216.4155,2.6238.87c.1892.0662.3808.1277.57.1951q1.5576.5565,3.0848,1.171c.2578.1032.5124.2119.769.3175q1.1872.4887,2.3562,1.01c.2844.127.5693.253.8521.3829.607.2788,1.2039.575,1.8042.8653a29.3439,29.3439,0,0,1,8.5013-16.1056C285.8178,77.5642,284.3292,76.8717,282.8162,76.2213Z"/>
      <g>
        <g>
          <rect class="cls-8" x="156.7032" y="327.9259" width="10.2549" height="10.2549" rx="5.1274"/>
          <g>
            <rect class="cls-8" x="138.4544" y="305.2714" width="10.2549" height="10.2549" rx="5.1274"/>
            <rect class="cls-8" x="174.952" y="305.2714" width="10.2549" height="10.2549" rx="5.1274"/>
          </g>
        </g>
        <g>
          <rect class="cls-8" x="273.6615" y="327.9259" width="10.2549" height="10.2549" rx="5.1274"/>
          <g>
            <rect class="cls-8" x="255.4127" y="305.2714" width="10.2549" height="10.2549" rx="5.1274"/>
            <rect class="cls-8" x="291.9104" y="305.2714" width="10.2549" height="10.2549" rx="5.1274"/>
          </g>
        </g>
      </g>
      <path class="cls-8" d="M343.97,168.5315A101.2,101.2,0,0,0,242.8848,67.446H197.7481A101.2,101.2,0,0,0,96.6632,168.5315L96.65,297.5161c0,.998.0283,1.99.0695,2.9781.0052.1287.0127.257.0193.3855.0215.4563.0567.9089.0869,1.3631.0318.4811.0591.9634.1009,1.442.0183.2091.0322.4192.0522.6278.0093.0974.0242.1932.0339.29.0455.4533.1043.9024.1583,1.3532.0493.41.0878.8235.1442,1.2317.031.2259.0682.45.1014.675.0109.0746.0253.148.0366.2225.071.4719.1509.9407.2314,1.41.0357.2084.0652.4188.1028.6266.0491.27.0969.54.1489.81.0386.1991.0862.395.126.5937.0955.4725.1943.9435.2993,1.4128.0574.26.1048.5235.1658.7823.0183.0773.04.1533.0583.23.0784.3276.1705.65.254.9756.1171.4609.2329.922.3591,1.38.0171.0619.0312.1249.0486.1867.0774.2781.1579.5548.2387.8316.0977.3342.2058.6641.3084.9963.1377.4472.2707.896.417,1.34.0459.1441.0908.2885.1391.4315.1939.5745.4063,1.1408.6148,1.7088.1611.4411.32.8831.49,1.32.0415.1041.0821.2084.1233.3126q.3864.98.8,1.9469c.0208.0486.042.0969.0628.1455.1992.4625.4087.9195.6174,1.3772.2688.5921.5351,1.1855.8208,1.7688.0464.0947.095.1882.1433.2818.2241.4532.4629.8981.6963,1.3461.1528.2925.2993.5883.4558.8787q.2043.3792.4138.7552c.2661.48.5427.9533.8194,1.427.0947.1618.1845.3264.2805.4875.1206.2029.2368.4082.3591.61.0864.1419.18.28.2671.4209q.437.7086.8916,1.4057c.0979.1506.19.305.2886.4549.1606.2435.3261.4833.49.7248.052.0772.1072.1524.1594.2293.323.4739.6489.9452.9829,1.4115l.0139.02c.1753.2444.3491.49.5274.732.1386.1885.2854.3712.4253.5587.3557.4742.71.9485,1.0771,1.4143.0479.0608.0925.1239.1406.1845.1211.1528.2473.3012.37.4529.1489.1848.3044.3644.455.5478.4883.5947.981,1.1853,1.4878,1.7651.0345.04.0684.0794.1031.1188.1389.1585.2839.3122.4245.4695q2.51,2.8122,5.2993,5.3756c.0923.0849.1817.1726.2747.257.08.0731.1609.1458.241.2191.6381.5755,1.289,1.1371,1.947,1.6921.1782.15.35.3073.53.4562.1118.0927.2268.1821.34.2739.5725.4687,1.155.9255,1.7419,1.3783.0671.0518.1321.1061.1992.1577q.3043.2331.6109.4636c.03.0228.0617.0442.092.067q.9017.6748,1.824,1.3243c.0781.0551.1535.1136.2319.1684.0628.0439.124.09.187.1335.2161.15.4378.2928.655.4409.4524.3074.9019.6176,1.3614.916l.0024.0015a79.1141,79.1141,0,0,0,20.4507,9.4384c.0674.02.1357.0379.2031.0579q1.7055.5045,3.4419.9374c.15.0371.3013.07.4514.1058,1.0855.2624,2.178.5067,3.2808.725.0581.0115.115.0268.1731.0382l-.03.01a78.2982,78.2982,0,0,0,14.4372,2.66c1.189,23.81,21.8933,42.85,47.1829,42.85,25.3091,0,46.0041-19.0406,47.1833-42.85a78.3849,78.3849,0,0,0,14.4568-2.66l-.029-.0191a79.3621,79.3621,0,0,0,27.9917-11.2936l.0005,0c.5952-.3865,1.1767-.79,1.76-1.1915.2458-.17.4939-.3373.7378-.51q.97-.6851,1.9162-1.399c.0386-.0291.0786-.0566.1174-.0857.0872-.0658.1736-.1316.2605-.1977.0552-.042.1077-.0869.1629-.129q1.0924-.8373,2.1538-1.7081c.0874-.0719.1728-.1458.26-.218q1.203-1,2.3642-2.0431l.0288-.0262.0323-.03a76.0216,76.0216,0,0,0,7.9951-8.429c.157-.1924.3215-.3791.4763-.5734.0176-.0221.0359-.0436.0535-.0657.0456-.0576.0881-.1178.1335-.1756.4348-.55.8552-1.1107,1.2739-1.6727.12-.1611.2461-.3173.365-.4793s.2342-.3254.3516-.4881c.0176-.0245.0339-.05.0515-.0743.3848-.5353.7593-1.0767,1.1294-1.6219.0637-.0939.1311-.1853.1946-.28.1074-.16.217-.3183.3232-.4791.0918-.1391.1768-.2826.2678-.4223q.5193-.7977,1.0193-1.6072c.0823-.1339.1712-.2638.2527-.3982.07-.1154.1362-.233.2056-.3488.1089-.182.21-.3687.3174-.5519.3073-.524.6142-1.0479.9086-1.58l.0054-.0094q.178-.3218.3535-.645c.139-.2572.2676-.52.4038-.779.2686-.5117.5418-1.0205.7979-1.5388.0093-.0186.0195-.0367.0288-.0554.0273-.0555.0569-.11.084-.1655.2346-.4784.45-.9665.6731-1.4511.2693-.5816.5388-1.1626.7927-1.7519l.0244-.0565q.4515-1.05.87-2.1153.0413-.1058.0832-.2113c.1956-.5032.3765-1.0125.5608-1.5207.187-.515.3811-1.0271.5564-1.5474.0437-.13.0845-.26.126-.391.1555-.4717.2968-.949.4428-1.4246.0982-.32.2029-.637.2967-.9586.0749-.2572.15-.5144.2219-.7727.0178-.0638.0325-.1288.05-.1926.13-.4711.2493-.9459.37-1.4205.0866-.338.1826-.6725.2636-1.0124.0127-.0539.0279-.107.0406-.1609.06-.2565.1071-.5176.1643-.7753q.1608-.7185.3054-1.442c.0393-.1968.0867-.3908.1248-.588.051-.2645.0983-.53.1462-.7954.0371-.2049.0659-.4123.1013-.6177.082-.477.1631-.954.2356-1.434.0107-.0718.0244-.1427.0352-.2145.0332-.2255.07-.45.1015-.6757.0562-.4072.0945-.8194.1436-1.2286.0542-.45.1128-.899.1582-1.3517.01-.096.0244-.1905.0337-.2867.0207-.2169.0351-.4356.0542-.6531.0415-.4786.0691-.9608.101-1.4419.03-.45.064-.8976.0855-1.3492.0063-.1313.0139-.2622.0195-.3938.0406-.9716.0679-1.9463.0684-2.9271l.0007-.0364ZM246.7214,380.2889c-.0271.0663-.05.1344-.0781.2-.0149.0357-.0323.07-.0474.1059a26.5282,26.5282,0,0,1-3.3408,5.7375,27.648,27.648,0,0,1-3.2732,3.596,29.0147,29.0147,0,0,1-19.7,7.59c-15.1,0-27.4665-11.3007-28.2971-25.4926h.0051c.98-.15,1.93-.32,2.87-.51q2.46-.48,4.74-1.08c.0273-.0057.0571-.0138.0844-.02q1.0782-.2262,2.2056-.51c.07-.0176.1374-.032.2078-.05q1.1766-.3,2.4-.6682c.052-.0155.1018-.0281.154-.0439,1.7442-.53,3.5481-1.1633,5.4-1.9353A57.5034,57.5034,0,0,0,220.29,361.68v.006c1.3137.8887,2.7922,1.81,4.428,2.7166a56.6555,56.6555,0,0,0,5.8039,2.806c.9292.3867,1.8448.736,2.7491,1.0592.0258.0093.0507.0164.0766.0256q1.3064.465,2.57.8475c.0742.0225.1453.0405.2193.0626q1.1865.3558,2.3315.6488c.0957.0245.1873.0441.2825.0678.7229.18,1.4328.3465,2.1257.4921.0337.0071.07.0168.103.0238q2.28.6,4.74,1.08c.93.19,1.89.36,2.86.51h0A25.6868,25.6868,0,0,1,246.7214,380.2889ZM325.02,297.5161c0,.8648-.0279,1.7234-.0689,2.5786-.0068.1423-.0093.2845-.018.4268-.022.3941-.0635.7832-.0943,1.1751-.041.54-.0759,1.0824-.1338,1.6182-.06.5548-.144,1.1028-.2212,1.6527-.051.3646-.09.7327-.1479,1.095q-.2212,1.37-.5108,2.7176c-.0351.1616-.08.32-.1164.481-.1245.5536-.262,1.1026-.4011,1.6509-.0459.1782-.0825.36-.13.5375-.094.3475-.2046.6885-.3062,1.0329-.13.4462-.2573.8933-.3989,1.3349-.0251.081-.0466.1636-.0727.2442-.1411.4327-.3.8576-.4524,1.2855-.15.4233-.2918.85-.4517,1.2686-.1887.4934-.3967.9778-.5993,1.4647-.1334.32-.2608.6436-.3987.9618-.01.022-.0181.0447-.0276.0667-.231.5234-.48,1.0373-.7271,1.5525-.143.2993-.2785.6025-.4272.899-.1262.2519-.26.5-.39.75s-.2683.4985-.4025.7478c-.1246.23-.2447.4632-.3724.6917-.1457.2609-.2924.5212-.4423.78-.2283.3931-.4673.7795-.7051,1.1667-.105.1708-.2041.3449-.3111.5145-.08.1279-.156.2585-.2373.3856-.4257.6649-.87,1.3182-1.3234,1.9646-.1448.2064-.2935.41-.4412.6146-.1707.2361-.3489.4666-.523.7-.19.254-.3754.5108-.5693.7617-.14.181-.2773.3635-.4194.5428-.2056.26-.4229.51-.6328.7665-.303.3691-.6.7434-.9121,1.105-.0862.1-.1761.1963-.2627.2951q-.693.7905-1.4156,1.5559-.2343.2484-.4716.4939-.7362.762-1.5,1.4985c-.0889.0855-.175.1734-.2644.2585q-.9063.8606-1.8523,1.6821c-.135.1177-.2732.2319-.4092.3483q-.7745.6626-1.5739,1.299c-.1568.1249-.313.2507-.4712.3741l-.0254.0192q-1.9754,1.5385-4.0889,2.9137l-.0044.0028c-.1706.111-.3428.22-.5146.3292q-.8917.5668-1.8057,1.1035c-.135.079-.2676.1607-.4031.2387q-1.1085.6388-2.248,1.2324c-.1216.0633-.2454.1227-.3675.1851-.5669.29-1.1418.5675-1.72.84-.0774.0365-.1526.0763-.23.1124q-.2929.1365-.5864.2707c-.7273.33-1.4612.6487-2.2046.9506-.0512.0208-.1011.0434-.1523.0642-.3535.1425-.7163.2677-1.0733.4038-.45.17-.8969.3475-1.352.5084-.1968.07-.3958.1357-.5938.2034q-.9752.3334-1.9663.6348c-.2009.0611-.4009.1244-.603.1835-.8308.2433-1.668.4727-2.5139.6813-.0989.0245-.2.0448-.2986.0688-.6165.1487-1.24.281-1.8638.4106-.1333.0278-.2646.0608-.3984.0878-.239.048-.4793.0943-.7192.14q-1.0635.2009-2.1407.365c-.166.0253-.33.0547-.497.0787q-1.3013.1872-2.6209.3181c-.2126.0213-.427.0369-.64.056q-1.0414.0935-2.0932.152c-.2537.0142-.5074.029-.7623.04-.8447.0366-1.6931.0593-2.5466.0615-.0532,0-.1055.0038-.1587.0038h-3.06c-.08-.0014-.1656-.0049-.2461-.0066-1.5015-.0324-3.1717-.1168-4.9827-.2828-.0913-.0084-.1782-.0142-.27-.023l-.0319-.0032q-.73-.07-1.4878-.1589l-.1182-.0145c-.1062-.0126-.2168-.0286-.3237-.0419-.3741-.0462-.7488-.0927-1.1324-.1465-.0622-.0087-.1254-.0183-.1877-.0272-.1453-.0208-.2956-.0459-.4421-.0678-.3306-.0493-.66-.0974-.9966-.1527-.0845-.0138-.1694-.0287-.2542-.0429-.0315-.0053-.0642-.0117-.0959-.0171-.4358-.0737-.8753-.1513-1.3208-.2355-.1069-.02-.2149-.0414-.3218-.0622-.4143-.08-.8337-.1669-1.2559-.2569-.0437-.0093-.0864-.0172-.13-.0266-.1311-.0282-.2629-.0573-.3948-.0864q-.6723-.149-1.3574-.3152-.2307-.0559-.4619-.1137-.6512-.1628-1.3127-.3429c-.18-.0487-.3594-.0974-.54-.1481-.143-.04-.2888-.0849-.4323-.1262-.2779-.08-.555-.1593-.8345-.2435-.2051-.0617-.41-.1227-.6157-.1869-.4014-.125-.8062-.2577-1.2115-.3924-.2348-.0781-.4692-.1549-.7055-.2364-.3731-.1286-.75-.2655-1.1258-.4027-.2712-.0989-.5412-.1958-.8137-.2993-.2842-.1078-.5708-.224-.8567-.3369-.0515-.0206-.103-.04-.1545-.0608-.3159-.1258-.6309-.249-.9483-.3812-.0778-.0324-.1565-.0683-.2346-.1011l-.0732-.0316a14.6651,14.6651,0,0,1-2.3186-1.3184,14.4439,14.4439,0,0,1-2.74-2.55,21.2456,21.2456,0,0,1-4.59-11.75c-.03-.47-.05-.93-.05-1.38v-.03a21.8521,21.8521,0,0,1,5.42-14.18l-.0063-.0063c.032-.035.0637-.0685.0957-.1033.6176-.6719,1.229-1.32,1.8261-1.9382q.15-.1548.2972-.3069c.2793-.2871.5568-.5711.8269-.8433l.0717-.0728c2.4615-2.4789,4.47-4.3,5.0992-4.863l.0256-.0229.0818-.073.1023-.09c.49-.4326.9614-.8448,1.4211-1.2455.14-.1217.2739-.2381.4107-.3569.3166-.2751.6281-.5451.93-.8056q.2184-.1879.4317-.3716.4584-.3944.895-.7677c.1038-.0886.21-.18.3123-.267.3845-.3281.76-.6475,1.1179-.9516.4868-.4136.9477-.8043,1.3879-1.1777.4116-.3493.81-.688,1.1831-1.0064a16.5235,16.5235,0,0,0,3.74-3.7659q.0988-.137.1946-.2759c.2566-.3711.5044-.75.7331-1.1431l.002-.0036c.228-.3926.4365-.8.6352-1.213q.0759-.1573.1485-.3163c.1909-.4167.3718-.84.5315-1.2746l.0063-.0174c.1592-.4347.2964-.8808.4231-1.332q.0483-.1723.0935-.346c.1189-.458.2273-.9207.3115-1.3933l.0015-.0081c.0838-.4716.1431-.9523.1909-1.4368.012-.1226.0227-.2452.0325-.3685.0386-.489.0649-.9816.0652-1.4814l0-.0041c0-.537-.03-1.0659-.0739-1.59-.013-.1554-.0315-.3085-.0486-.4626q-.063-.5775-.16-1.1425c-.0259-.15-.05-.3-.0791-.449a18.2386,18.2386,0,0,0-.8315-2.9146c-.0523-.1382-.1094-.2731-.1648-.4095q-.2081-.5117-.4451-1.0051c-.0632-.1318-.1245-.2641-.1909-.3937a17.4325,17.4325,0,0,0-1.5352-2.4737c-.0854-.1148-.1748-.2255-.2627-.338q-.3288-.42-.6811-.8152c-.0943-.1059-.1868-.2128-.2835-.3161-.3242-.346-.6574-.6817-1.008-.9967l-.01-.0094c-.3506-.3144-.7173-.6072-1.0923-.8885-.1115-.0838-.226-.1625-.34-.2433q-.4258-.3027-.87-.5754c-.1189-.0731-.2365-.1476-.3571-.2174-.407-.235-.8208-.4574-1.2476-.6538a14.6994,14.6994,0,0,0-6.168-1.3552q-5.1753.5738-10.3484.8606t-10.3454.2869c-2.586,0-5.1719-.0717-7.7578-.1793-4.31-.1793-8.6189-.49-12.9282-.9682h0c-.4936,0-.98.0323-1.4619.08-.1423.0141-.2827.0344-.4241.0526q-.5317.0686-1.0515.1745c-.1377.0281-.2756.0539-.4119.0858a14.8078,14.8078,0,0,0-2.6794.9049c-.1262.0566-.25.1182-.3745.1782q-.4713.2269-.926.4854c-.12.0683-.241.1347-.3594.2063a15.848,15.848,0,0,0-2.2747,1.6713c-.1047.0924-.2058.1887-.3083.2839q-.3872.3591-.752.7439c-.0964.1016-.1938.2016-.2878.3058a17.0751,17.0751,0,0,0-1.7417,2.2981c-.0767.1211-.1489.2452-.2229.3685q-.2784.4644-.5293.9488c-.0669.129-.135.2566-.199.3876-.2161.4429-.42.8935-.6008,1.3583q-.3007.774-.5327,1.5851a18.6737,18.6737,0,0,0-.7119,5.1307q0,.5634.0327,1.1181a18.7035,18.7035,0,0,0,.22,1.937c.0081.05.0137.1013.0222.1514.1043.6038.242,1.1942.4024,1.7739.0205.0745.0388.15.06.2238.1628.5606.354,1.1068.5666,1.6409.0332.0837.0655.1674.1.25q.326.7843.7209,1.5242c.0437.0821.0877.1633.1326.2445q.4042.7319.8709,1.4152c.05.0727.101.1435.1518.2152.3215.4546.6607.8932,1.022,1.31.0483.056.0989.1092.1479.1645a16.5676,16.5676,0,0,0,1.1834,1.2082c.0351.0323.0723.0619.1077.0939a16.0727,16.0727,0,0,0,1.3659,1.1069l.0022.0017h-.02c.7686.6562,1.6218,1.3772,2.5674,2.18,1.2605,1.07,2.685,2.285,4.2925,3.685q.6027.525,1.24,1.0853l.0271.024.0242.0214.0141.0123c.0349.0311.0816.0724.1448.129l.0024.0022c.0606.054.138.1234.2222.1994l.0588.0529c.0743.067.1592.1443.2486.2256l.0957.0869c.7348.67,1.9043,1.759,3.2954,3.1255q.2823.2777.5771.5711c.1119.1113.2217.22.336.3344q.4713.4725.9643.9778c.0686.07.139.1434.208.2145q.4542.4681.9205.9592c.0544.0573.1088.1144.1633.1723q.5592.592,1.1274,1.2115c.04.05.09.1.13.15a21.8779,21.8779,0,0,1,5.29,14.03v.03c0,.45-.02.91-.05,1.38a21.2463,21.2463,0,0,1-4.59,11.75,14.5387,14.5387,0,0,1-2.75,2.55,13.8358,13.8358,0,0,1-2.3013,1.3072c-.1472.0623-.2959.13-.4429.1909-.177.0733-.353.1415-.53.2128-.0927.0375-.1848.0721-.2776.1093-.3669.1463-.7346.2945-1.0988.4324-.22.0829-.438.1611-.657.2413q-.4949.1814-.9863.3529c-.0787.0276-.1582.0576-.2366.0847-.2456.0846-.489.1645-.7329.2454-.3787.1257-.7566.2494-1.1316.3666-.2581.08-.5137.1571-.7695.2337-.0633.0189-.1258.0363-.1888.055-.2932.0869-.5864.1742-.8772.256-.2612.0735-.5207.1442-.78.2138q-.5207.14-1.0361.2707-.3783.0954-.7532.1853-.5178.1243-1.0285.2388-.3641.0816-.7249.1588l-.0566.0116q-.49.1038-.9737.1991c-.2221.0438-.4443.0873-.664.1285-.3545.0663-.7046.1282-1.0527.1877-.2017.0346-.4039.07-.6036.102-.3647.0592-.7241.1135-1.081.1657-.1741.0255-.3491.052-.521.0758-.3848.0534-.7632.1015-1.1384.1473-.137.0169-.2754.0348-.4109.0507-.4075.0473-.8072.0893-1.2022.1283-.0979.01-.198.0208-.2954.03-.3086.0293-.6074.0528-.9079.0774-.1236.01-.2515.0225-.3738.0319-.053.0041-.1082.0093-.1609.0132-.3794.0282-.7473.0506-1.1126.072-.08.0047-.1635.0113-.2424.0157l-.0347.0022c-.23.0127-.448.02-.6721.03q-.5376.0245-1.0527.0408c-.2969.0091-.596.0187-.88.0239h-3.06c-.9065,0-1.8064-.0264-2.7031-.0653-.2551-.011-.5093-.0259-.7634-.04q-1.05-.0585-2.09-.1518c-.2146-.0193-.43-.0349-.644-.0564q-1.3173-.132-2.617-.3177c-.1687-.0243-.3352-.0538-.5031-.08q-1.0716-.1632-2.13-.3631-.3656-.069-.73-.1418-1.1276-.2273-2.2395-.4935c-.1062-.0256-.2138-.0477-.32-.0738-.8428-.2079-1.677-.4366-2.5049-.6789-.2063-.06-.4107-.125-.616-.1875q-.9817-.2988-1.9482-.6291c-.2029-.0694-.4068-.137-.6087-.2084-.8127-.2875-1.6189-.5879-2.4143-.9083-.0576-.0233-.1142-.0485-.1714-.0721-.7375-.3-1.4658-.616-2.1875-.9432-.1984-.09-.3957-.1819-.593-.2739q-.9836-.459-1.9467-.9508c-.1219-.0623-.2454-.1217-.3667-.1848q-1.1422-.5944-2.2535-1.2354c-.1291-.0744-.2556-.1523-.3845-.2277q-.9279-.5441-1.8325-1.12c-.1638-.1042-.3279-.2079-.49-.3135l-.0246-.0167q-2.127-1.3836-4.1172-2.9354l-.0064-.0048c-.1416-.11-.2812-.2231-.4216-.3348-.3045-.242-.5994-.4938-.8984-.7414-.2508-.2076-.5062-.41-.7532-.6213-.1135-.0974-.229-.1929-.3418-.2911l-.0383-.0348q-.9471-.8256-1.858-1.6871c-.0576-.0549-.1132-.1119-.1706-.167-.3972-.3808-.7815-.7735-1.1668-1.1652-.1464-.1486-.2981-.2923-.4428-.4424q-.2-.2078-.3987-.4174c-.084-.0889-.1633-.1819-.2468-.2713-.44-.4711-.8775-.9441-1.3006-1.4292-.0464-.0532-.0947-.105-.1408-.1584-.0447-.0516-.086-.1061-.13-.1579q-.7541-.8772-1.4719-1.7828c-.11-.1388-.2163-.28-.325-.42q-.5819-.75-1.136-1.52c-.022-.03-.0454-.0595-.0671-.09-.1209-.1677-.2427-.3344-.3616-.5034-.4734-.6726-.9353-1.3529-1.3784-2.0457-.0366-.0569-.07-.1156-.1065-.1726-.0986-.1555-.1884-.3163-.2856-.4728-.2949-.4767-.5889-.9539-.87-1.4391-.1272-.22-.2517-.441-.3757-.6624-.2219-.3952-.4331-.7963-.645-1.1973-.0713-.1351-.147-.2679-.2173-.4035-.1065-.2056-.2168-.409-.3206-.616-.1516-.3016-.289-.6105-.435-.9151-.262-.5464-.5242-1.0925-.7678-1.6481-.1358-.3093-.2586-.6247-.3887-.9368-.2276-.5463-.4556-1.0925-.6653-1.6469-.13-.3432-.2466-.692-.37-1.0382-.1887-.5307-.3777-1.0613-.55-1.599-.1208-.3781-.2287-.7614-.3415-1.1428-.1519-.5137-.3045-1.0272-.4414-1.5467-.1077-.41-.2024-.8241-.3006-1.2374-.1191-.5-.2387-1-.3435-1.5057-.0329-.1584-.06-.3188-.09-.4782-.0547-.2773-.1062-.5555-.1567-.8342-.0894-.493-.1787-.986-.2544-1.4834-.0686-.45-.1245-.9029-.1816-1.3558-.0628-.4974-.1243-.9951-.1734-1.4964-.0439-.4528-.0764-.9087-.1091-1.3646-.0366-.5118-.0713-1.0241-.0933-1.54-.0034-.08-.0034-.16-.0066-.24-.0283-.6883-.0549-1.377-.0549-2.0719l.0136-128.9846a82.2781,82.2781,0,0,1,82.1845-82.1851h45.1367a82.2782,82.2782,0,0,1,82.1846,82.1851Z"/>
      <g class="cls-10">
        <path class="cls-9" d="M200.2318,280.9269a106.4,106.4,0,0,0,40.156,0c4.24-.9158,6.3489,2.3889,3.3582,5.1011a146.7345,146.7345,0,0,1-19.87,14.187,7.0416,7.0416,0,0,1-6.7623.0184,147.6533,147.6533,0,0,1-20.2116-14.18C193.8724,283.3445,195.973,280.0057,200.2318,280.9269Z"/>
      </g>
      <path class="cls-11" d="M342.7177,309.5515h38.95c12.15,0,47.9167-35.7665,47.9167-47.9167,0,0-48.8372-165.4459-77.111-165.4459H320.8369a11,11,0,0,0-11,11Z"/>
      <path class="cls-12" d="M342.7178,309.5515h38.95c8.1555,0,26.9513-16.1144,38.4288-30.3848a34.8532,34.8532,0,0,0,6.76-29.5575s-46.1094-153.42-74.3832-153.42H320.8369a11,11,0,0,0-11,11c5.5883,19.11,10.7947,39.4562,15.3588,60.9879A835.3812,835.3812,0,0,1,342.7178,309.5515Z"/>
      <path class="cls-13" d="M97.9019,309.5515h-38.95c-12.15,0-47.9168-35.7665-47.9168-47.9167,0,0,48.8372-165.4459,77.1111-165.4459h31.6367a11,11,0,0,1,11,11Z"/>
      <path class="cls-12" d="M97.9019,309.5515h-38.95c-8.1555,0-26.9512-16.1144-38.4287-30.3848a34.8532,34.8532,0,0,1-6.76-29.5575s46.1093-153.42,74.3831-153.42h31.6368a11,11,0,0,1,11,11c-5.5883,19.11-10.7947,39.4562-15.3588,60.9879A835.371,835.371,0,0,0,97.9019,309.5515Z"/>
    </g>
  </g>
</svg>
