<svg xmlns="http://www.w3.org/2000/svg" xmlns:xlink="http://www.w3.org/1999/xlink" width="442.0599" height="442.0599" viewBox="0 0 442.0599 442.0599">
  <defs>
    <style>
      .cls-1 {
        isolation: isolate;
      }

      .cls-2 {
        fill: none;
      }

      .cls-3 {
        fill: url(#linear-gradient);
      }

      .cls-4, .cls-8, .cls-9 {
        opacity: 0.25;
        mix-blend-mode: multiply;
      }

      .cls-5 {
        fill: url(#linear-gradient-2);
      }

      .cls-6 {
        fill: url(#linear-gradient-3);
      }

      .cls-7 {
        opacity: 0.5;
        mix-blend-mode: screen;
        fill: url(#linear-gradient-4);
      }

      .cls-8 {
        fill: url(#linear-gradient-5);
      }

      .cls-9 {
        fill: url(#linear-gradient-6);
      }

      .cls-10 {
        fill: #320a00;
      }

      .cls-11 {
        fill: url(#linear-gradient-8);
      }

      .cls-12 {
        fill: url(#linear-gradient-9);
      }

      .cls-13 {
        fill: #fcfffe;
      }

      .cls-14 {
        fill: url(#linear-gradient-10);
      }

      .cls-15 {
        fill: url(#linear-gradient-11);
      }

      .cls-16 {
        fill: url(#linear-gradient-12);
      }

      .cls-17 {
        fill: url(#linear-gradient-13);
      }
    </style>
    <linearGradient id="linear-gradient" x1="221.027" y1="461.6069" x2="221.027" y2="69.2561" gradientUnits="userSpaceOnUse">
      <stop offset="0" stop-color="#ff6700"/>
      <stop offset="0.0175" stop-color="#ff6c00"/>
      <stop offset="0.1219" stop-color="#ff8300"/>
      <stop offset="0.2421" stop-color="#ff9500"/>
      <stop offset="0.3856" stop-color="#ffa200"/>
      <stop offset="0.576" stop-color="#ffa900"/>
      <stop offset="1" stop-color="#ffab00"/>
    </linearGradient>
    <linearGradient id="linear-gradient-2" x1="145.8932" y1="244.0933" x2="145.8932" y2="-55.6422" gradientUnits="userSpaceOnUse">
      <stop offset="0" stop-color="#ff6700"/>
      <stop offset="0.0091" stop-color="#ff6c00"/>
      <stop offset="0.0629" stop-color="#ff8300"/>
      <stop offset="0.125" stop-color="#ff9500"/>
      <stop offset="0.1991" stop-color="#ffa200"/>
      <stop offset="0.2973" stop-color="#ffa900"/>
      <stop offset="0.5162" stop-color="#ffab00"/>
    </linearGradient>
    <linearGradient id="linear-gradient-3" x1="-1609.1291" y1="244.0933" x2="-1609.1291" y2="-55.6422" gradientTransform="matrix(-1, 0, 0, 1, -1309.5885, 0)" gradientUnits="userSpaceOnUse">
      <stop offset="0" stop-color="#ff6700"/>
      <stop offset="0.009" stop-color="#ff6c00"/>
      <stop offset="0.0624" stop-color="#ff8300"/>
      <stop offset="0.1238" stop-color="#ff9500"/>
      <stop offset="0.1972" stop-color="#ffa200"/>
      <stop offset="0.2945" stop-color="#ffa900"/>
      <stop offset="0.5114" stop-color="#ffab00"/>
    </linearGradient>
    <linearGradient id="linear-gradient-4" x1="221.0271" y1="387.8071" x2="221.0271" y2="110.0487" gradientUnits="userSpaceOnUse">
      <stop offset="0" stop-color="#ffca80"/>
      <stop offset="0.2705" stop-color="#ffd380"/>
      <stop offset="0.5959" stop-color="#ffd380"/>
    </linearGradient>
    <linearGradient id="linear-gradient-5" x1="221.027" y1="379.0142" x2="221.027" y2="325.7242" gradientUnits="userSpaceOnUse">
      <stop offset="0.4032" stop-color="#ff7d00"/>
      <stop offset="0.6209" stop-color="#ffc240"/>
    </linearGradient>
    <linearGradient id="linear-gradient-6" x1="221.027" y1="332.3191" x2="221.027" y2="323.3026" gradientUnits="userSpaceOnUse">
      <stop offset="0" stop-color="#ff9500"/>
      <stop offset="0.2705" stop-color="#ffbd40"/>
      <stop offset="0.3618" stop-color="#ffb932"/>
      <stop offset="0.5322" stop-color="#ffad0f"/>
      <stop offset="0.5959" stop-color="#ffa800"/>
    </linearGradient>
    <linearGradient id="linear-gradient-8" x1="90.2983" y1="210.1655" x2="90.2983" y2="12.397" xlink:href="#linear-gradient"/>
    <linearGradient id="linear-gradient-9" x1="351.7553" y1="210.1655" x2="351.7553" y2="12.397" xlink:href="#linear-gradient"/>
    <linearGradient id="linear-gradient-10" x1="221.027" y1="366.1068" x2="221.027" y2="401.9468" gradientUnits="userSpaceOnUse">
      <stop offset="0.3463" stop-color="#ff7167"/>
      <stop offset="0.6116" stop-color="#ff8074"/>
      <stop offset="0.8527" stop-color="#ff9283"/>
    </linearGradient>
    <linearGradient id="linear-gradient-11" x1="248.4117" y1="366.1068" x2="248.4117" y2="401.9468" xlink:href="#linear-gradient-10"/>
    <linearGradient id="linear-gradient-12" x1="247.3596" y1="366.1068" x2="247.3596" y2="401.9468" xlink:href="#linear-gradient-10"/>
    <linearGradient id="linear-gradient-13" x1="218.3436" y1="366.1068" x2="218.3436" y2="401.9468" xlink:href="#linear-gradient-10"/>
  </defs>
  <g class="cls-1">
    <g id="Layer_1" data-name="Layer 1">
      <g>
        <path class="cls-2" d="M221.0218,401.9468a29.0281,29.0281,0,0,0,19.698-7.59,26.3289,26.3289,0,0,0,8.6415-18.41H192.6928C193.2493,390.3768,205.7443,401.9468,221.0218,401.9468Z"/>
        <path class="cls-3" d="M296.102,180.8368l-12.873-74.67a29.308,29.308,0,0,1-.43-5.56,87.7252,87.7252,0,0,0-42.0841-10.66H201.34a87.79,87.79,0,0,0-42.0735,10.65,30.2362,30.2362,0,0,1-.43,5.57l-12.873,74.67c-2.8245,16.34-14.091,29.64-29.6731,35.77v85.34c0,30.88,26.3865,56,58.8,56h3.0661a69.27,69.27,0,0,0,27.1214-6q2.5673-1.17,4.8405-2.43a.1869.1869,0,0,0,.0735-.05c4.998-3.35,8.0956-7.95,8.0956-13.05,0-4.89,5.4809-4.82,5.4809,0,0,5.1,3.0975,9.7,8.0956,13.05a.1876.1876,0,0,0,.0735.05q2.268,1.26,4.84,2.43a69.2717,69.2717,0,0,0,27.1216,6h3.0659c32.424,0,58.8-25.12,58.8-56v-85.34C310.1826,210.4668,298.9265,197.1768,296.102,180.8368Z"/>
        <path class="cls-2" d="M296.1035,180.836l-12.8779-74.6709a29.9237,29.9237,0,0,1-.4245-5.5623,87.7768,87.7768,0,0,0-42.0866-10.656H201.34A87.7678,87.7678,0,0,0,159.2626,100.6a29.9354,29.9354,0,0,1-.4246,5.565L145.96,180.8365c-2.8189,16.3442-14.0883,29.6359-29.67,35.77v85.34c0,30.88,26.3865,56,58.8,56h3.0661a69.27,69.27,0,0,0,27.1214-6q2.5673-1.17,4.8405-2.43a.1869.1869,0,0,0,.0735-.05c4.998-3.35,8.0956-7.95,8.0956-13.05,0-4.89-2.856-9.33-7.5076-12.64a77.2548,77.2548,0,0,1-13.902-11.72,74.8516,74.8516,0,0,1-11.4029-15.92c-3.465-6.5,1.5539-14.19,9.198-14.19h52.71c7.6545,0,12.6735,7.69,9.2084,14.19a74.5563,74.5563,0,0,1-11.4135,15.92,77.1,77.1,0,0,1-14.0595,11.83c-.0209.02-.0419.03-.0525.04-4.5255,3.29-7.2975,7.67-7.2975,12.49,0,5.1,3.0975,9.7,8.0956,13.05a.1876.1876,0,0,0,.0735.05q2.268,1.26,4.84,2.43a69.2717,69.2717,0,0,0,27.1216,6h3.0659c32.424,0,58.8-25.12,58.8-56V216.6031C310.1874,210.4673,298.9214,197.1774,296.1035,180.836Z"/>
        <g class="cls-4">
          <path class="cls-5" d="M180.7669,84.4845c-.327.0357-.6526.0807-.9793.1177a281.5437,281.5437,0,0,0-28.4326,5.9871,30.9081,30.9081,0,0,1-3.1832,8.577c-.0872.1568-.1647.3146-.25.4714a69.9372,69.9372,0,0,0-2.1483,9.1229c-1.333,12.4991-1.7746,25.235-4.9787,37.4036-.9506,3.6105-2.1772,7.1323-3.36,10.6718a35.7006,35.7006,0,0,1,.9855,6.4923c.99,17.3979-9.3728,31.7353-23.143,41.0636a23.6972,23.6972,0,0,1-7.5192,3.3081,109.5264,109.5264,0,0,1,1.5844,23.4142,49.9261,49.9261,0,0,0,10.167.9472,50.6155,50.6155,0,0,0,9.1663-.9245,48.7982,48.7982,0,0,0,19.4783-8.5782,42.1589,42.1589,0,0,0,16.7094-27.3412l15.866-92.0112L184.0277,84.06Q182.4283,84.3051,180.7669,84.4845Z"/>
          <path class="cls-6" d="M332.8443,222.5305c-.8364-5.9612-1.7148-12.0036-2.2851-18.0674a45.7434,45.7434,0,0,1-19.3827-17.7075,78.6906,78.6906,0,0,1-8.3269-23.0412c-1.4018-6.8377-2.1163-13.7921-3.2426-20.6757-1.1712-7.1573-3.236-14.084-4.972-21.1162-1.6716-6.7713-3.2934-13.5687-5.5527-20.1745-1.1736-3.4316-2.1775-6.9314-3.2117-10.4154a208.3058,208.3058,0,0,0-21.0848-4.9894l2.9045,16.8631,15.8659,92.0112a42.1589,42.1589,0,0,0,16.7094,27.3412,48.7989,48.7989,0,0,0,19.4783,8.5782,50.3135,50.3135,0,0,0,14.5515.6833Q333.5031,227.187,332.8443,222.5305Z"/>
        </g>
        <path class="cls-7" d="M149.2288,364.4944H292.5224a76.8207,76.8207,0,0,0,33.2447-63.3077v-2.84a12.5468,12.5468,0,0,0-12.51-12.51h-.13c-20.68,0-38.49-9.09-46.59-22.16-.18-.29-.36-.58-.57-.86-8.69-11.77-25.52-19.76-44.88-19.78h-.13c-19.36.02-36.19,8.01-44.88,19.78-.21.28-.39.57-.57.86-8.1,13.07-25.91,22.16-46.59,22.16h-.32a12.3462,12.3462,0,0,0-12.31,12.31v3.485A76.3738,76.3738,0,0,0,149.2288,364.4944Z"/>
        <path class="cls-8" d="M148.0551,363.6817c.6268-.0428,1.2548-.0721,1.8846-.0721H294.1035a76.5638,76.5638,0,0,0,26.1485-37.8854,71.7,71.7,0,0,1-98.22,6.28c-.34-.27-.67-.56-1-.85-.33.29-.67.57-1.01.85a71.7,71.7,0,0,1-98.22-6.28A76.6034,76.6034,0,0,0,148.0551,363.6817Z"/>
        <path class="cls-9" d="M221.532,331.1542c-.33.29-.67.57-1.01.85v-1.73C220.8521,330.5742,221.192,330.8642,221.532,331.1542Z"/>
        <path class="cls-9" d="M221.527,330.2742v1.73c-.34-.27-.67-.56-1-.85C220.867,330.8642,221.197,330.5742,221.527,330.2742Z"/>
        <g>
          <g>
            <rect class="cls-10" x="133.4252" y="310.0324" width="10.2549" height="10.2549" rx="5.1274"/>
            <rect class="cls-10" x="155.5446" y="332.6869" width="10.2549" height="10.2549" rx="5.1274"/>
            <rect class="cls-10" x="169.9228" y="310.0324" width="10.2549" height="10.2549" rx="5.1274"/>
          </g>
          <g>
            <rect class="cls-10" x="298.374" y="310.0324" width="10.2549" height="10.2549" rx="5.1274" transform="translate(607.0029 630.3198) rotate(-180)"/>
            <rect class="cls-10" x="276.2546" y="332.6869" width="10.2549" height="10.2549" rx="5.1274" transform="translate(562.7642 675.6288) rotate(180)"/>
            <rect class="cls-10" x="261.8764" y="310.0324" width="10.2549" height="10.2549" rx="5.1274" transform="translate(534.0077 630.3198) rotate(-180)"/>
          </g>
        </g>
        <g>
          <path class="cls-11" d="M127.3093,177.9168l10.4685-60.71,2.4045-13.96a12.2809,12.2809,0,0,0-2.8455-10.25,14.1324,14.1324,0,0,0-1.617-1.62,13.7744,13.7744,0,0,0-8.904-3.26,14.6852,14.6852,0,0,0-4.0215.57l-60.8475,17.39a29.5977,29.5977,0,0,0-19.803,17.72,27.5721,27.5721,0,0,0,2.94,25.73l26.5545,39.37a29.9974,29.9974,0,0,0,25.746,13.33,33.4051,33.4051,0,0,0,6.048-.61,32.1974,32.1974,0,0,0,12.852-5.66A27.8166,27.8166,0,0,0,127.3093,177.9168Z"/>
          <path class="cls-12" d="M380.1073,106.0768,319.26,88.6868a13.7431,13.7431,0,0,0-14.5425,4.31,12.2556,12.2556,0,0,0-2.8455,10.25l2.4045,13.97,10.4685,60.7a27.8972,27.8972,0,0,0,11.0145,18.04,32.2382,32.2382,0,0,0,12.8625,5.66,33.3847,33.3847,0,0,0,6.0375.61,29.9906,29.9906,0,0,0,25.7565-13.33l26.5545-39.37a27.5721,27.5721,0,0,0,2.94-25.73A29.6434,29.6434,0,0,0,380.1073,106.0768Z"/>
        </g>
        <g>
          <path class="cls-10" d="M134.6771,214.7787c-6.6825,12.3093.4944,27.0746,12.9965,31.9255,12.4954,4.8669,28.4712-.8977,32.7421-14.1445,3.8356-13.4163-3.2306-28.1383-12.9965-31.9255C157.66,196.8308,141.7952,202.6385,134.6771,214.7787Z"/>
          <path class="cls-10" d="M307.377,214.7787c6.6825,12.3093-.4944,27.0746-12.9966,31.9255-12.4953,4.8669-28.4711-.8977-32.742-14.1445-3.8356-13.4163,3.2306-28.1383,12.9965-31.9255C284.3944,196.8308,300.2589,202.6385,307.377,214.7787Z"/>
        </g>
        <rect class="cls-13" x="142.7096" y="211.2465" width="8.4906" height="8.0862" rx="4.0431"/>
        <rect class="cls-13" x="270.219" y="211.2465" width="8.4906" height="8.0862" rx="4.0431"/>
        <path class="cls-14" d="M249.3621,375.9468a26.3282,26.3282,0,0,1-8.64,18.41,29.0154,29.0154,0,0,1-19.7,7.59c-15.28,0-27.77-11.57-28.33-26h.01a58.3717,58.3717,0,0,0,18.09-4.31,57.499,57.499,0,0,0,10.24-5.53,57.0372,57.0372,0,0,0,10.23,5.53A58.4856,58.4856,0,0,0,249.3621,375.9468Z"/>
        <path class="cls-2" d="M192.73,375.9442h-.03l0,.0026h.0019Z"/>
        <path class="cls-2" d="M249.36,375.9442h-.0261l.026.0024Z"/>
        <path class="cls-2" d="M247.4614,384.717c-.0272.0664-.05.1344-.0781.2C247.4109,384.8514,247.4343,384.7833,247.4614,384.717Z"/>
        <path class="cls-2" d="M127.31,177.9142l10.47-60.71,2.4-13.96a12.2371,12.2371,0,0,0-2.84-10.25,13.7807,13.7807,0,0,0-10.52-4.88,14.62,14.62,0,0,0-4.02.57l-60.85,17.39a29.5954,29.5954,0,0,0-19.8,17.72,27.5671,27.5671,0,0,0,2.94,25.73l26.55,39.37a29.9942,29.9942,0,0,0,25.75,13.33,33.3167,33.3167,0,0,0,6.04-.61,32.1829,32.1829,0,0,0,12.86-5.66A27.8248,27.8248,0,0,0,127.31,177.9142Z"/>
        <path class="cls-2" d="M296.1,180.8342l-12.87-74.67a28.2858,28.2858,0,0,1-.43-5.56,87.77,87.77,0,0,0-42.09-10.66H201.34a87.8074,87.8074,0,0,0-42.08,10.65,29.96,29.96,0,0,1-.43,5.57l-12.87,74.67c-2.82,16.34-14.09,29.64-29.67,35.77v85.34c0,30.88,26.38,56,58.8,56h3.06a69.2455,69.2455,0,0,0,27.12-6q2.58-1.17,4.84-2.43a.1586.1586,0,0,0,.08-.05,18.4858,18.4858,0,0,0,7.17-8.32,10.9386,10.9386,0,0,0,.31-1.49,12.2752,12.2752,0,0,1,.12-1.72c.7-8.39-18.11-24.89-18.11-24.89-3.4-2.99-6.05-5.2-8.1-6.95h.02a17.6224,17.6224,0,0,1-7.11-14.38c0-9.53,7.09-17.25,15.85-17.25a187.0993,187.0993,0,0,0,41.38,0c8.75,0,15.85,7.72,15.85,17.25a17.6494,17.6494,0,0,1-7.11,14.38c-2.06,1.76-4.7,3.96-8.09,6.95,0,0-18.81,16.5-18.11,24.89a12.2752,12.2752,0,0,1,.12,1.72,10.9537,10.9537,0,0,0,.31,1.49,18.4257,18.4257,0,0,0,7.17,8.32.18.18,0,0,0,.07.05q2.28,1.26,4.84,2.43a69.2871,69.2871,0,0,0,27.13,6h3.06c32.43,0,58.8-25.12,58.8-56v-85.34C310.18,210.4642,298.92,197.1742,296.1,180.8342Z"/>
        <path class="cls-2" d="M243.9951,390.7608a26.5327,26.5327,0,0,0,3.3409-5.7375A26.6089,26.6089,0,0,1,243.9951,390.7608Z"/>
        <path class="cls-2" d="M380.11,106.0742l-60.85-17.39a13.9187,13.9187,0,0,0-12.93,2.69,13.6759,13.6759,0,0,0-1.61,1.62,12.2515,12.2515,0,0,0-2.85,10.25l2.41,13.97,10.47,60.7a27.9043,27.9043,0,0,0,11.01,18.04,32.243,32.243,0,0,0,12.86,5.66,33.4078,33.4078,0,0,0,6.04.61,29.9979,29.9979,0,0,0,25.76-13.33l26.55-39.37a27.5659,27.5659,0,0,0,2.94-25.73A29.6394,29.6394,0,0,0,380.11,106.0742Z"/>
        <path class="cls-10" d="M417.65,117.5442c-5.43-13.97-17.14-24.44-32.11-28.72l-60.85-17.38a33.5891,33.5891,0,0,0-30.84,6.41,32.182,32.182,0,0,0-5.05,5.34,107.4378,107.4378,0,0,0-48.09-11.25H201.34a107.4265,107.4265,0,0,0-48.08,11.25,32.1785,32.1785,0,0,0-5.05-5.34,33.6029,33.6029,0,0,0-30.85-6.41l-60.84,17.38c-14.98,4.28-26.68,14.75-32.11,28.72a44.75,44.75,0,0,0,4.77,41.71l26.56,39.36a49.5648,49.5648,0,0,0,41.33,21.62h.32v81.71c0,40.39,34.15,73.33,76.39,73.99.56,24.35,21.54,44.01,47.24,44.01,25.72,0,46.69-19.66,47.24-44.01,42.26-.66,76.4-33.6,76.4-73.99v-81.71h.33a49.6068,49.6068,0,0,0,41.33-21.61l26.56-39.37A44.75,44.75,0,0,0,417.65,117.5442Zm-320.26,84.68a29.9942,29.9942,0,0,1-25.75-13.33l-26.55-39.37a27.5671,27.5671,0,0,1-2.94-25.73,29.5954,29.5954,0,0,1,19.8-17.72l60.85-17.39a14.62,14.62,0,0,1,4.02-.57,13.7807,13.7807,0,0,1,10.52,4.88,12.2371,12.2371,0,0,1,2.84,10.25l-2.4,13.96-10.47,60.71a27.8248,27.8248,0,0,1-11.02,18.04,32.1829,32.1829,0,0,1-12.86,5.66A33.3167,33.3167,0,0,1,97.39,202.2242ZM240.7221,394.3568a29.0153,29.0153,0,0,1-19.7,7.59c-15.28,0-27.77-11.57-28.33-26H192.7l0-.0026h.03a58.3618,58.3618,0,0,0,18.0617-4.3074,57.5,57.5,0,0,0,10.24-5.53,57.0326,57.0326,0,0,0,10.23,5.53,58.4765,58.4765,0,0,0,18.0718,4.3074h.0261l0,.0024.0023,0a25.661,25.661,0,0,1-1.9007,8.77c-.0271.0663-.05.1344-.0781.2-.0149.0358-.0323.07-.0473.1059a26.5327,26.5327,0,0,1-3.3409,5.7375A27.6329,27.6329,0,0,1,240.7221,394.3568ZM325.76,301.9442c0,30.88-26.37,56-58.8,56H263.9a69.2871,69.2871,0,0,1-27.13-6q-2.565-1.17-4.84-2.43a.18.18,0,0,1-.07-.05,18.4257,18.4257,0,0,1-7.17-8.32,10.9537,10.9537,0,0,1-.31-1.49,12.2752,12.2752,0,0,0-.12-1.72c-.7-8.39,18.11-24.89,18.11-24.89,3.39-2.99,6.03-5.19,8.09-6.95a17.6494,17.6494,0,0,0,7.11-14.38c0-9.53-7.1-17.25-15.85-17.25a187.0993,187.0993,0,0,1-41.38,0c-8.76,0-15.85,7.72-15.85,17.25a17.6224,17.6224,0,0,0,7.11,14.38h-.02c2.05,1.75,4.7,3.96,8.1,6.95,0,0,18.81,16.5,18.11,24.89a12.2752,12.2752,0,0,0-.12,1.72,10.9386,10.9386,0,0,1-.31,1.49,18.4858,18.4858,0,0,1-7.17,8.32.1586.1586,0,0,1-.08.05q-2.265,1.26-4.84,2.43a69.2455,69.2455,0,0,1-27.12,6h-3.06c-32.42,0-58.8-25.12-58.8-56v-85.34c15.58-6.13,26.85-19.43,29.67-35.77l12.87-74.67a29.96,29.96,0,0,0,.43-5.57,87.8074,87.8074,0,0,1,42.08-10.65h39.37a87.77,87.77,0,0,1,42.09,10.66,28.2858,28.2858,0,0,0,.43,5.56l12.87,74.67c2.82,16.34,14.08,29.63,29.66,35.77Zm71.21-152.42-26.55,39.37a29.9979,29.9979,0,0,1-25.76,13.33,33.4078,33.4078,0,0,1-6.04-.61,32.243,32.243,0,0,1-12.86-5.66,27.9043,27.9043,0,0,1-11.01-18.04l-10.47-60.7-2.41-13.97a12.2515,12.2515,0,0,1,2.85-10.25,13.6759,13.6759,0,0,1,1.61-1.62,13.9187,13.9187,0,0,1,12.93-2.69l60.85,17.39a29.6394,29.6394,0,0,1,19.8,17.72A27.5659,27.5659,0,0,1,396.97,149.5242Z"/>
        <path class="cls-10" d="M249.3621,375.9468l-.0023,0a25.6854,25.6854,0,0,1-1.8984,8.77A25.661,25.661,0,0,0,249.3621,375.9468Z"/>
        <path class="cls-15" d="M249.3621,375.9468l-.0023,0a25.6854,25.6854,0,0,1-1.8984,8.77A25.661,25.661,0,0,0,249.3621,375.9468Z"/>
        <path class="cls-10" d="M247.3833,384.9174c-.0149.0358-.0322.07-.0473.1059C247.351,384.9877,247.3684,384.9532,247.3833,384.9174Z"/>
        <path class="cls-16" d="M247.3833,384.9174c-.0149.0358-.0322.07-.0473.1059C247.351,384.9877,247.3684,384.9532,247.3833,384.9174Z"/>
        <path class="cls-10" d="M240.72,394.3542a29.0152,29.0152,0,0,1-19.7,7.59c-15.2691,0-27.7686-11.5686-28.32-25.9974h-.0082c.56,14.43,13.05,26,28.33,26a29.0153,29.0153,0,0,0,19.7-7.59,27.6329,27.6329,0,0,0,3.273-3.596A27.5279,27.5279,0,0,1,240.72,394.3542Z"/>
        <path class="cls-17" d="M240.72,394.3542a29.0152,29.0152,0,0,1-19.7,7.59c-15.2691,0-27.7686-11.5686-28.32-25.9974h-.0082c.56,14.43,13.05,26,28.33,26a29.0153,29.0153,0,0,0,19.7-7.59,27.6329,27.6329,0,0,0,3.273-3.596A27.5279,27.5279,0,0,1,240.72,394.3542Z"/>
      </g>
    </g>
  </g>
</svg>
