<svg xmlns="http://www.w3.org/2000/svg" xmlns:xlink="http://www.w3.org/1999/xlink" width="442.0599" height="442.0599" viewBox="0 0 442.0599 442.0599">
  <defs>
    <style>
      .cls-1 {
        isolation: isolate;
      }

      .cls-2 {
        fill: url(#linear-gradient);
      }

      .cls-3 {
        opacity: 0.25;
      }

      .cls-10, .cls-3 {
        mix-blend-mode: multiply;
      }

      .cls-4 {
        fill: url(#linear-gradient-2);
      }

      .cls-5 {
        fill: url(#linear-gradient-3);
      }

      .cls-6 {
        fill: url(#linear-gradient-4);
      }

      .cls-7 {
        fill: url(#linear-gradient-5);
      }

      .cls-8 {
        fill: url(#linear-gradient-6);
      }

      .cls-9 {
        opacity: 0.4;
        mix-blend-mode: screen;
        fill: url(#linear-gradient-7);
      }

      .cls-10, .cls-14 {
        opacity: 0.15;
      }

      .cls-10 {
        fill: url(#linear-gradient-8);
      }

      .cls-11 {
        fill: url(#linear-gradient-9);
      }

      .cls-12 {
        fill: #320a00;
      }

      .cls-13 {
        fill: #fcfffe;
      }
    </style>
    <linearGradient id="linear-gradient" x1="221.03" y1="457.1788" x2="221.03" y2="64.828" gradientUnits="userSpaceOnUse">
      <stop offset="0" stop-color="#ff6700"/>
      <stop offset="0.0175" stop-color="#ff6c00"/>
      <stop offset="0.1219" stop-color="#ff8300"/>
      <stop offset="0.2421" stop-color="#ff9500"/>
      <stop offset="0.3856" stop-color="#ffa200"/>
      <stop offset="0.576" stop-color="#ffa900"/>
      <stop offset="1" stop-color="#ffab00"/>
    </linearGradient>
    <linearGradient id="linear-gradient-2" x1="145.8961" y1="239.6652" x2="145.8961" y2="-60.0703" gradientUnits="userSpaceOnUse">
      <stop offset="0" stop-color="#ff6700"/>
      <stop offset="0.0091" stop-color="#ff6c00"/>
      <stop offset="0.0629" stop-color="#ff8300"/>
      <stop offset="0.125" stop-color="#ff9500"/>
      <stop offset="0.1991" stop-color="#ffa200"/>
      <stop offset="0.2973" stop-color="#ffa900"/>
      <stop offset="0.5162" stop-color="#ffab00"/>
    </linearGradient>
    <linearGradient id="linear-gradient-3" x1="-4149.3665" y1="239.6652" x2="-4149.3665" y2="-60.0703" gradientTransform="matrix(-1, 0, 0, 1, -3849.823, 0)" gradientUnits="userSpaceOnUse">
      <stop offset="0" stop-color="#ff6700"/>
      <stop offset="0.009" stop-color="#ff6c00"/>
      <stop offset="0.0624" stop-color="#ff8300"/>
      <stop offset="0.1238" stop-color="#ff9500"/>
      <stop offset="0.1972" stop-color="#ffa200"/>
      <stop offset="0.2945" stop-color="#ffa900"/>
      <stop offset="0.5114" stop-color="#ffab00"/>
    </linearGradient>
    <linearGradient id="linear-gradient-4" x1="90.3012" y1="205.7374" x2="90.3012" y2="7.9689" xlink:href="#linear-gradient"/>
    <linearGradient id="linear-gradient-5" x1="351.7582" y1="205.7374" x2="351.7582" y2="7.9689" xlink:href="#linear-gradient"/>
    <linearGradient id="linear-gradient-6" x1="221.03" y1="383.1674" x2="221.03" y2="105.4091" gradientUnits="userSpaceOnUse">
      <stop offset="0" stop-color="#ff9500"/>
      <stop offset="0.2705" stop-color="#ffbd40"/>
      <stop offset="0.3618" stop-color="#ffb932"/>
      <stop offset="0.5322" stop-color="#ffad0f"/>
      <stop offset="0.5959" stop-color="#ffa800"/>
    </linearGradient>
    <linearGradient id="linear-gradient-7" x1="221.03" y1="383.1674" x2="221.03" y2="105.4091" gradientUnits="userSpaceOnUse">
      <stop offset="0" stop-color="#ffca80"/>
      <stop offset="0.2705" stop-color="#ffd380"/>
      <stop offset="0.5959" stop-color="#ffd380"/>
    </linearGradient>
    <linearGradient id="linear-gradient-8" x1="221.03" y1="374.5861" x2="221.03" y2="321.2961" gradientUnits="userSpaceOnUse">
      <stop offset="0.4032" stop-color="#ff7d00"/>
      <stop offset="0.6209" stop-color="#ffc240"/>
    </linearGradient>
    <linearGradient id="linear-gradient-9" x1="221.03" y1="361.6787" x2="221.03" y2="397.5187" gradientUnits="userSpaceOnUse">
      <stop offset="0.3463" stop-color="#ff7167"/>
      <stop offset="0.6116" stop-color="#ff8074"/>
      <stop offset="0.8527" stop-color="#ff9283"/>
    </linearGradient>
  </defs>
  <g class="cls-1">
    <g id="Layer_1" data-name="Layer 1">
      <g>
        <g>
          <path class="cls-2" d="M296.105,176.4087l-12.8731-74.67a29.308,29.308,0,0,1-.43-5.56,87.7248,87.7248,0,0,0-42.084-10.66h-39.375a87.79,87.79,0,0,0-42.0736,10.65,30.2362,30.2362,0,0,1-.43,5.57l-12.873,74.67c-2.8245,16.34-14.091,29.64-29.673,35.77v85.34c0,30.88,26.3865,56,58.8,56h3.066a69.271,69.271,0,0,0,27.1215-6q2.5673-1.17,4.84-2.43a.1869.1869,0,0,0,.0735-.05c4.9981-3.35,8.0956-7.95,8.0956-13.05,0-4.89,5.4809-4.82,5.4809,0,0,5.1,3.0976,9.7,8.0956,13.05a.1876.1876,0,0,0,.0735.05q2.268,1.26,4.84,2.43a69.271,69.271,0,0,0,27.1215,6h3.066c32.424,0,58.8-25.12,58.8-56v-85.34C310.1855,206.0387,298.93,192.7487,296.105,176.4087Z"/>
          <g class="cls-3">
            <path class="cls-4" d="M180.77,80.0564c-.3271.0357-.6527.0806-.9794.1177a281.5437,281.5437,0,0,0-28.4326,5.9871,30.91,30.91,0,0,1-3.1832,8.577c-.0872.1568-.1647.3146-.25.4714a69.9207,69.9207,0,0,0-2.1482,9.1229c-1.3331,12.4991-1.7746,25.235-4.9787,37.4036-.9507,3.6105-2.1773,7.1323-3.36,10.6718a35.6993,35.6993,0,0,1,.9855,6.4923c.99,17.3979-9.3728,31.7353-23.143,41.0636a23.6977,23.6977,0,0,1-7.5191,3.3081,109.5328,109.5328,0,0,1,1.5843,23.4142,49.9264,49.9264,0,0,0,10.1671.9472,50.6332,50.6332,0,0,0,9.1662-.9245,48.7982,48.7982,0,0,0,19.4783-8.5782,42.1585,42.1585,0,0,0,16.7094-27.3412l15.866-92.0112,3.2977-19.1462Q182.4312,79.8768,180.77,80.0564Z"/>
            <path class="cls-5" d="M332.8472,218.1024c-.8364-5.9612-1.7148-12.0036-2.285-18.0674a45.7431,45.7431,0,0,1-19.3828-17.7075,78.6906,78.6906,0,0,1-8.3269-23.0412c-1.4018-6.8377-2.1163-13.7921-3.2426-20.6757-1.1712-7.1573-3.236-14.084-4.972-21.1162-1.6716-6.7713-3.2934-13.5687-5.5527-20.1745-1.1736-3.4316-2.1775-6.9315-3.2117-10.4154a208.2994,208.2994,0,0,0-21.0848-4.9894l2.9045,16.8631,15.866,92.0112a42.1584,42.1584,0,0,0,16.7093,27.3412,48.8,48.8,0,0,0,19.4783,8.5782,50.3141,50.3141,0,0,0,14.5516.6833Q333.506,222.7588,332.8472,218.1024Z"/>
          </g>
          <g>
            <path class="cls-6" d="M127.3122,173.4887l10.4685-60.71,2.4045-13.96a12.2809,12.2809,0,0,0-2.8455-10.25,14.1324,14.1324,0,0,0-1.617-1.62,13.7744,13.7744,0,0,0-8.904-3.26,14.6852,14.6852,0,0,0-4.0215.57L61.95,101.6487a29.5977,29.5977,0,0,0-19.803,17.72,27.5721,27.5721,0,0,0,2.94,25.73l26.5545,39.37a29.9974,29.9974,0,0,0,25.746,13.33,33.4051,33.4051,0,0,0,6.048-.61,32.1974,32.1974,0,0,0,12.852-5.66A27.8166,27.8166,0,0,0,127.3122,173.4887Z"/>
            <path class="cls-7" d="M380.11,101.6487l-60.8475-17.39a13.7431,13.7431,0,0,0-14.5425,4.31,12.2556,12.2556,0,0,0-2.8455,10.25l2.4045,13.97,10.4685,60.7a27.8972,27.8972,0,0,0,11.0145,18.04,32.2382,32.2382,0,0,0,12.8625,5.66,33.3847,33.3847,0,0,0,6.0375.61,29.9906,29.9906,0,0,0,25.7565-13.33l26.5545-39.37a27.5721,27.5721,0,0,0,2.94-25.73A29.6434,29.6434,0,0,0,380.11,101.6487Z"/>
          </g>
        </g>
        <path class="cls-8" d="M149.2317,359.8547H292.5253A76.8205,76.8205,0,0,0,325.77,296.5471v-2.84a12.5467,12.5467,0,0,0-12.51-12.51h-.13c-20.68,0-38.49-9.09-46.59-22.16-.18-.29-.36-.58-.57-.86-8.69-11.77-25.52-19.76-44.88-19.78h-.13c-19.36.02-36.19,8.01-44.88,19.78-.21.28-.39.57-.57.86-8.1,13.07-25.91,22.16-46.59,22.16h-.32a12.3461,12.3461,0,0,0-12.31,12.31v3.485A76.3737,76.3737,0,0,0,149.2317,359.8547Z"/>
        <path class="cls-9" d="M149.2317,359.8547H292.5253A76.8205,76.8205,0,0,0,325.77,296.5471v-2.84a12.5467,12.5467,0,0,0-12.51-12.51h-.13c-20.68,0-38.49-9.09-46.59-22.16-.18-.29-.36-.58-.57-.86-8.69-11.77-25.52-19.76-44.88-19.78h-.13c-19.36.02-36.19,8.01-44.88,19.78-.21.28-.39.57-.57.86-8.1,13.07-25.91,22.16-46.59,22.16h-.32a12.3461,12.3461,0,0,0-12.31,12.31v3.485A76.3737,76.3737,0,0,0,149.2317,359.8547Z"/>
        <path class="cls-10" d="M148.0581,359.2536c.6267-.0428,1.2547-.0721,1.8845-.0721H294.1064a76.5646,76.5646,0,0,0,26.1486-37.8854,71.7,71.7,0,0,1-98.22,6.28c-.34-.27-.67-.56-1-.85-.33.29-.67.57-1.01.85a71.7,71.7,0,0,1-98.22-6.28A76.603,76.603,0,0,0,148.0581,359.2536Z"/>
        <path class="cls-11" d="M249.365,371.5187a26.3278,26.3278,0,0,1-8.64,18.41,29.0154,29.0154,0,0,1-19.7,7.59c-15.28,0-27.77-11.57-28.33-26h.01a58.3717,58.3717,0,0,0,18.09-4.31,57.5037,57.5037,0,0,0,10.24-5.53,57.0326,57.0326,0,0,0,10.23,5.53A58.4856,58.4856,0,0,0,249.365,371.5187Z"/>
        <g>
          <g>
            <path class="cls-12" d="M134.68,210.3506c-6.6825,12.3093.4944,27.0746,12.9966,31.9255,12.4953,4.8669,28.4711-.8977,32.742-14.1445,3.8356-13.4163-3.2306-28.1383-12.9965-31.9255C157.6626,192.4027,141.7981,198.21,134.68,210.3506Z"/>
            <path class="cls-12" d="M307.38,210.3506c6.6825,12.3093-.4944,27.0746-12.9965,31.9255-12.4954,4.8669-28.4712-.8977-32.7421-14.1445-3.8356-13.4163,3.2306-28.1383,12.9965-31.9255C284.3973,192.4027,300.2618,198.21,307.38,210.3506Z"/>
          </g>
          <rect class="cls-13" x="142.7125" y="206.8184" width="8.4906" height="8.0862" rx="4.0431"/>
          <rect class="cls-13" x="270.2219" y="206.8184" width="8.4906" height="8.0862" rx="4.0431"/>
        </g>
        <path class="cls-12" d="M419.3432,118.4049a46.712,46.712,0,0,0-6.9006-15.068,46.9666,46.9666,0,0,0-5.2771-6.3214,49.6259,49.6259,0,0,0-21.63-12.6194l-60.85-17.38a34.4971,34.4971,0,0,0-4.0835-.9038c-.614-.0972-1.2292-.1719-1.8442-.2353-.1824-.0188-.3648-.033-.5471-.0488q-.6844-.0594-1.3682-.0912c-.1821-.0085-.3643-.0185-.5461-.024-.6148-.0186-1.229-.0261-1.8416-.0115h0l-.0007,0c-.6057.0145-1.2093.0511-1.8113.0979-.16.0124-.3186.0266-.4778.0412-.53.0487-1.0581.1083-1.584.1818-.0778.011-.1562.0186-.2339.03-.5915.087-1.1794.1932-1.7646.3114-.15.03-.2986.0633-.4475.0955q-.7342.1587-1.46.35c-.114.03-.2285.0569-.3423.0881q-.86.2364-1.7063.52c-.1321.044-.2627.0918-.394.1374q-.7.243-1.3882.5169c-.1289.0512-.2586.1-.387.1533q-.8272.3412-1.637.7262c-.1047.05-.2075.1039-.3117.1551q-.68.3335-1.346.6989c-.1333.0731-.2668.1451-.3991.22-.5247.2971-1.0435.6057-1.553.9324-.0635.0407-.125.0846-.188.1257q-.6789.4417-1.3369.92c-.13.0941-.26.1884-.3887.2845-.4917.3666-.9778.7426-1.4512,1.1386a31.7377,31.7377,0,0,0-2.7011,2.55q-.6311.6693-1.2181,1.3678t-1.1306,1.4222Q286.1,77.42,283.3122,76.2213q-1.28-.55-2.58-1.0656c-.271-.1082-.5444-.2117-.8164-.3177q-.9052-.3526-1.8181-.6906-.4735-.1746-.95-.3442-.89-.3186-1.7883-.6212c-.303-.1023-.605-.206-.9092-.3058q-1.0811-.3544-2.1733-.6854c-.1753-.0534-.3489-.11-.5244-.1629q-1.3518-.4038-2.7193-.7723c-.2529-.0683-.508-.1313-.7617-.1978q-1.0005-.2625-2.0073-.5079c-.3286-.0795-.6585-.1556-.9883-.2321q-.9258-.2147-1.8582-.4134c-.3322-.0708-.6645-.1419-.998-.21q-1.0213-.2075-2.05-.394c-.2629-.0481-.5247-.1-.7883-.1463q-1.4144-.2481-2.8416-.4608c-.1892-.028-.38-.051-.57-.0781q-1.1518-.1644-2.3116-.3061c-.3305-.04-.6628-.0754-.9946-.1124q-.9712-.1083-1.9475-.2-.5284-.0493-1.0579-.0942-1.0071-.0842-2.02-.1482c-.3127-.02-.6242-.0435-.9377-.0611-.9805-.0551-1.9636-.1007-2.9512-.13q-1.6156-.0474-3.2432-.0476h-39.37a108.0406,108.0406,0,0,0-35.053,5.808q-1.8435.6312-3.6533,1.3264-4.8076,1.8452-9.3735,4.1156a32.7263,32.7263,0,0,0-2.3489-2.79q-.6309-.6693-1.3059-1.3078t-1.3953-1.2422a33.1641,33.1641,0,0,0-14.5549-7.03c-.5957-.1236-1.196-.2258-1.7983-.3171-.18-.0272-.3594-.05-.54-.0743q-.67-.09-1.3442-.1542c-.1807-.0171-.3609-.0357-.5418-.05-.6093-.0477-1.22-.0845-1.8332-.0992h-.0005c-.7778-.0186-1.5581-.0029-2.3394.0322-.2451.011-.49.0326-.7353.0489-.5464.0364-1.0928.0836-1.64.1466q-.4112.0474-.8222.1048c-.5464.0764-1.0913.1687-1.6365.2719-.2454.0465-.49.0875-.7354.1394-.7775.1648-1.5534.35-2.3254.57l-.0037.0009L95.2341,73.3355,56.5156,84.3961l-.0081.0025c-.84.24-1.6655.5058-2.4841.7843-.2451.0834-.487.1718-.73.2587q-.9024.3219-1.7859.6745c-.238.0949-.4768.1881-.7126.2863-.7869.3278-1.566.6679-2.3291,1.0316l-.0245.0118c-.7783.3713-1.5405.7657-2.2932,1.1736-.24.13-.4753.2683-.7134.4024-.5183.2921-1.0317.59-1.5371.9-.2624.16-.5219.324-.7807.4891q-.7289.465-1.4373.9546c-.2383.1643-.4783.3262-.7134.4944q-.8375.5991-1.6442,1.233c-.13.1014-.264.1973-.3926.3q-.9906.7911-1.9341,1.6322c-.1724.1532-.3372.3132-.5071.4687-.4558.4171-.9053.84-1.3437,1.2738-.21.208-.4156.42-.6219.6317q-.5913.6077-1.16,1.2354c-.1985.2191-.397.4377-.5911.66-.4053.4647-.7986.9394-1.1853,1.42-.1435.1785-.2922.3523-.4333.5329q-.7764.9941-1.501,2.029c-.0918.1316-.1763.2684-.2666.401q-.5787.8475-1.1221,1.72c-.1506.2427-.2942.49-.44.7356q-.439.7385-.853,1.4938-.2176.3987-.4288.8015c-.2729.5241-.5339,1.0558-.7878,1.592-.1147.2422-.2339.4816-.3445.7262-.353.7791-.6909,1.5668-1.0029,2.37-.303.7807-.5754,1.5664-.8337,2.354-.0545.1666-.11.333-.1624.5-.2427.7694-.467,1.5414-.6675,2.316-.0332.1282-.0617.2569-.0937.3853q-.2667,1.0678-.4795,2.14c-.0259.13-.055.2594-.08.3894-.1477.7792-.2717,1.56-.3775,2.3413-.0229.1692-.0432.3384-.0642.5077-.0991.8011-.184,1.6027-.2392,2.4046-.0552.7992-.08,1.5982-.0921,2.3969-.0029.21-.0036.419-.0036.6287,0,.7063.0139,1.412.0476,2.1166.0049.1.0054.2009.0107.3012.0432.79.1123,1.5783.198,2.365.0218.2.0476.3995.072.5993q.1217.99.2869,1.9743c.0256.1522.0471.3047.0745.4566q.2094,1.166.4829,2.3221c.0422.18.09.3583.1343.5376q.2373.9554.5175,1.9022c.0528.1789.1028.3583.158.5368q.3527,1.14.7661,2.2663c.054.1466.1138.2917.1692.4378q.36.9461.7642,1.88c.082.19.1628.38.2475.5694.3311.7389.6782,1.473,1.0508,2.1992.0474.0926.1.1835.148.2759q.5046.9684,1.061,1.92c.11.1886.22.3768.3325.5643.429.7141.8709,1.4233,1.3413,2.1215l26.56,39.36c.5166.7665,1.06,1.5081,1.6147,2.2379.1177.1551.2349.31.3545.4637q.8232,1.0557,1.6958,2.06c.0969.1111.1973.2182.2949.3283q.8115.9129,1.6641,1.78c.1025.1043.2026.2115.3061.3148q.9361.9343,1.92,1.81c.1421.1272.2859.2519.4295.3774.6767.5914,1.3633,1.17,2.07,1.7215.7046.55,1.4285,1.0722,2.1609,1.5816.1926.1341.3865.2656.5813.3969q.981.6618,1.9914,1.2776c.0955.0579.1883.12.2845.1771.76.4538,1.5341.8821,2.3173,1.2943.1993.1048.4.2054.6006.3075q.9943.5061,2.01.9678c.157.0713.3118.1467.4695.2163q1.2107.5341,2.4512,1.0027c.1943.0737.3906.1418.5859.2131q1.03.3762,2.0781.7077c.199.063.3968.129.5967.19q1.2723.3852,2.5669.7058c.17.0419.3418.0774.5122.1175q1.0947.2576,2.2036.4664c.2251.0425.45.0865.6756.126.8845.1549,1.7732.292,2.6687.4006.1142.0138.23.0223.3437.0354.7984.0913,1.6006.1615,2.4063.2157.2412.0161.4824.0316.7241.0445.9141.0485,1.83.0819,2.7517.0819h.32v81.71c0,.998.0283,1.99.07,2.9781.0051.1288.0126.257.0192.3855.0215.4563.0567.9089.087,1.3631.0317.4811.059.9634.1008,1.442.0183.2091.0322.4192.0522.6278.0093.0974.0242.1932.034.2905.0454.4532.1042.9023.1582,1.3531.0493.41.0879.8235.1443,1.2318.031.2258.0681.45.1013.6749.011.0746.0254.1481.0366.2225.071.4719.1509.9407.2314,1.41.0357.2084.0652.4188.1028.6266.0491.27.0969.54.149.81.0385.1991.0861.395.1259.5937q.1432.7087.2993,1.4128c.0574.26.1048.5235.1658.7823.0183.0773.04.1533.0584.23.0783.3276.17.65.2539.9756.1172.4609.2329.922.3591,1.38.0171.0619.0313.1249.0486.1867.0774.2781.1579.5548.2388.8316.0976.3342.2058.6641.3083.9963.1377.4472.2708.896.417,1.34.0459.1441.0908.2885.1392.4316.1938.5744.4062,1.1407.6147,1.7088.1611.4411.32.883.49,1.32.0415.1041.082.2084.1232.3126q.3864.98.8,1.9469c.0208.0486.042.0969.0628.1456.1992.4624.4087.9194.6174,1.3771.2688.5922.5352,1.1855.8208,1.7689.0464.0946.095.1881.1433.2818.2241.4531.4629.898.6963,1.346.1528.2925.2993.5883.4558.8787q.2044.3792.4138.7552c.2662.48.5428.9533.8194,1.427.0947.1618.1845.3264.2805.4875.1206.2029.2368.4082.3591.61.0864.142.18.28.2671.4209q.437.7086.8916,1.4057c.0979.1506.19.305.2886.4549.1606.2435.3262.4833.49.7248.052.0772.1072.1524.1594.2293.323.4739.6489.9452.9829,1.4115l.0139.02c.1753.2444.3492.49.5274.732.1387.1886.2854.3712.4253.5587.3557.4742.71.9485,1.0771,1.4143.0479.0608.0926.1239.1407.1845.121.1528.2473.3012.37.4529.1489.1848.3044.3644.4551.5478.4882.5947.9809,1.1853,1.4878,1.7652.0344.0394.0683.0793.103.1187.1389.1585.2839.3122.4245.4695q2.51,2.8122,5.2994,5.3756c.0922.0849.1816.1726.2746.257.08.0731.1609.1459.241.2191.6382.5755,1.289,1.1371,1.947,1.6921.1782.15.35.3073.53.4562.1118.0927.2268.1821.34.2739.5725.4687,1.155.9255,1.7419,1.3783.0672.0518.1321.1061.1992.1577q.3043.2331.6109.4636c.03.0228.0617.0442.092.067q.9017.6748,1.824,1.3243c.0781.0551.1536.1136.2319.1684.0628.0439.124.09.187.1335.2161.15.4378.2928.6551.4409.4524.3074.9018.6176,1.3613.916l.0024.0015h0a79.1156,79.1156,0,0,0,20.4507,9.4384c.0674.02.1358.0379.2031.0579q1.7055.5045,3.4419.9374c.15.0371.3013.07.4515.1058,1.0854.2624,2.1779.5067,3.2807.725.0581.0115.115.0268.1731.0382l-.03.01a78.29,78.29,0,0,0,14.4372,2.66c1.189,23.81,21.8934,42.85,47.1829,42.85,25.3091,0,46.0042-19.0406,47.1834-42.85a78.3769,78.3769,0,0,0,14.4567-2.66l-.029-.0191a79.36,79.36,0,0,0,27.9917-11.2936h0l0,0c.5952-.3865,1.1767-.79,1.76-1.1915.2458-.17.4939-.3373.7378-.51q.97-.6849,1.9162-1.399c.0386-.0291.0786-.0565.1175-.0857.0871-.0658.1736-.1316.2605-.1977.0551-.042.1076-.0869.1628-.129q1.0925-.8372,2.1538-1.7081c.0874-.0719.1729-.1458.26-.218q1.203-1,2.3642-2.0431l.0288-.0262.0323-.03a76.0216,76.0216,0,0,0,7.9951-8.429c.157-.1924.3215-.3791.4763-.5734.0176-.0221.0359-.0436.0535-.0657.0456-.0576.0881-.1178.1335-.1756.4348-.55.8552-1.1107,1.2739-1.6727.12-.1611.2461-.3173.365-.4792s.2342-.3255.3516-.4882c.0176-.0245.0339-.05.0515-.0743.3848-.5353.7593-1.0767,1.1294-1.6219.0637-.0939.1311-.1853.1946-.28.1074-.16.217-.3183.3232-.4791.0918-.1391.1768-.2826.2679-.4223q.5191-.7977,1.0192-1.6072c.0823-.1339.1712-.2638.2527-.3982.07-.1154.1363-.233.2056-.3488.1089-.182.21-.3687.3174-.5518.3073-.5241.6142-1.048.9087-1.58l.0053-.0094q.178-.3218.3536-.645c.1389-.2572.2675-.52.4038-.7789.2685-.5118.5417-1.0206.7978-1.5389.0093-.0186.0195-.0367.0288-.0554.0274-.0555.0569-.11.084-.1655.2346-.4784.45-.9665.6731-1.4511.2693-.5816.5388-1.1626.7927-1.7519l.0244-.0565q.4517-1.05.87-2.1153c.0276-.07.0551-.141.0832-.2113.1956-.5031.3765-1.0125.5608-1.5207.187-.515.3811-1.0271.5564-1.5474.0437-.13.0845-.26.126-.391.1555-.4717.2969-.949.4429-1.4246.0981-.32.2028-.637.2966-.9586.0749-.2572.15-.5144.2219-.7727.0178-.0638.0325-.1287.05-.1926.13-.4711.2492-.9459.37-1.4205.0867-.338.1826-.6724.2637-1.0124.0127-.0539.0278-.1069.04-.1609.06-.2565.1072-.5176.1643-.7753q.1608-.7185.3054-1.442c.0393-.1968.0867-.3908.1248-.588.051-.2645.0984-.53.1462-.7954.0371-.2049.0659-.4123.1013-.6177.0821-.477.1631-.954.2356-1.434.0108-.0718.0244-.1426.0352-.2145.0332-.2254.07-.45.1015-.6757.0562-.4072.0945-.8194.1436-1.2286.0542-.45.1128-.899.1582-1.3517.01-.096.0244-.1905.0337-.2866.0207-.217.0351-.4357.0542-.6532.0415-.4786.0691-.9608.1011-1.4419.03-.45.0639-.8976.0854-1.3492.0064-.1312.0139-.2622.0195-.3938.0406-.9716.0679-1.9463.0684-2.9271l.0007-.0364v-81.71h.33q1.5513,0,3.09-.092t3.06-.2746c.9546-.1143,1.9018-.26,2.8437-.4269.3062-.0543.6079-.1229.9126-.1826.6345-.1245,1.2676-.2531,1.895-.4013.3572-.0843.71-.18,1.065-.2716.5708-.1478,1.1391-.301,1.7031-.4683.3674-.1089.7319-.2244,1.0962-.3415q.8219-.2643,1.6321-.5558c.36-.1294.718-.26,1.0744-.3976.5467-.211,1.0872-.4352,1.6255-.6649.3347-.1428.67-.282,1.0015-.4319.5823-.2636,1.1553-.5451,1.7263-.8307.2739-.137.552-.2658.8233-.4078a49.2164,49.2164,0,0,0,4.8532-2.9068c.2525-.1717.4964-.3559.7456-.5323.523-.37,1.0432-.744,1.5518-1.135.2871-.2207.5669-.451.8491-.6782.4585-.3689.9126-.7426,1.3582-1.1286.2885-.25.572-.5055.8549-.7626q.641-.5823,1.2615-1.1885c.2744-.2679.5474-.537.8159-.8119.4136-.4236.8167-.8588,1.2159-1.2988.2473-.2726.497-.542.7387-.821.4253-.4909.8355-.9974,1.2425-1.5075.1953-.2448.3974-.4823.5886-.7315.5881-.7674,1.16-1.5515,1.7056-2.36l8.8532-13.1233,17.7066-26.2467a46.856,46.856,0,0,0,4.7746-9.1107,44.2148,44.2148,0,0,0,1.6931-27.31Zm-17.5979,13.0034q-.0234.3284-.0546.6561c-.042.4409-.0972.8808-.1609,1.32-.0281.1936-.052.3879-.0843.581-.1045.6234-.2246,1.2448-.3725,1.8615-.1726.7194-.3858,1.4314-.6172,2.1391q-.0861.2632-.1777.5252a28.3552,28.3552,0,0,1-1.827,4.1313q-.1358.2517-.2773.5015c-.3772.666-.7722,1.3259-1.2073,1.9708l-.0009.0018-17.9048,26.55-8.6453,12.82a31.8662,31.8662,0,0,1-2.7078,3.4751,29.5633,29.5633,0,0,1-9.3735,6.9661c-.2593.1208-.5217.2231-.7825.3356a31.3412,31.3412,0,0,1-9.7458,2.4281c-1.0352.0885-2.0618.1305-3.0713.1237-.0261,0-.0527.0016-.0791.0013-.6023-.0057-1.1978-.0322-1.7886-.07-.8889-.0564-1.7622-.1465-2.6137-.2681-.555-.0792-1.1031-.1681-1.6375-.2722l-.0081-.0017c-.5-.0985-1.0044-.2131-1.5112-.3392-.166-.0412-.3332-.09-.5-.1347-.3457-.0918-.6917-.1861-1.0391-.291-.1982-.06-.3972-.1263-.5959-.19-.3184-.1029-.637-.209-.9556-.3229-.209-.0747-.4177-.1533-.6267-.2328q-.468-.1781-.9346-.3725c-.208-.0865-.4157-.1741-.623-.2654-.3179-.14-.6343-.2884-.95-.44-.1967-.0944-.3938-.1867-.59-.2856-.343-.1732-.6831-.358-1.0224-.545-.1638-.09-.3291-.1756-.492-.2692a30.6792,30.6792,0,0,1-3.0124-1.97,27.9809,27.9809,0,0,1-7.64-8.5508q-.3363-.5864-.6475-1.1981a28.1343,28.1343,0,0,1-1.627-3.9061,30.482,30.482,0,0,1-1.0954-4.385l-10.47-60.7-2.41-13.97-.0007-.0059c-.0721-.4183-.116-.834-.1468-1.2479-.0066-.09-.0139-.18-.0185-.2695-.0215-.4039-.0259-.8055-.0086-1.2031.003-.0675.01-.1341.014-.2014q.0328-.5465.1137-1.0831c.01-.0649.0166-.13.0274-.1951.0652-.3889.1516-.7725.2541-1.1516.022-.0818.0464-.163.07-.2443a12.1355,12.1355,0,0,1,.9124-2.2472c.0564-.1073.1181-.2126.178-.3185q.2241-.396.4782-.7787c.0684-.1027.135-.2064.2066-.3076.24-.34.4929-.6744.77-.9961.2451-.285.4975-.565.7636-.8362a11.5222,11.5222,0,0,1,.8465-.7838l.0012-.0009a14.3177,14.3177,0,0,1,1.2524-.9253c.0913-.0608.1822-.1224.2744-.1809a13.9238,13.9238,0,0,1,1.2994-.7333c.0742-.0366.15-.0679.2251-.103q.6159-.29,1.2539-.5162c.0766-.0272.1521-.0584.2292-.0843a13.67,13.67,0,0,1,1.4187-.3877c.1045-.0229.21-.0426.3152-.0631a13.893,13.893,0,0,1,3.0308-.2486c.1525.0041.3056.0159.4584.0249q.5739.0342,1.1507.1151c.1535.0216.3071.0405.4609.0671a15.061,15.061,0,0,1,1.56.3462l60.85,17.39a29.64,29.64,0,0,1,19.8,17.72c.2395.6165.45,1.2378.6448,1.8611.06.193.1118.387.1677.5806.1267.4387.2444.8784.3491,1.32q.0777.3274.1472.6557c.0935.4418.1741.8844.2459,1.3276.0317.1955.0674.3907.0947.5864a27.3166,27.3166,0,0,1,.2637,3.7959c0,.196-.0088.3913-.0132.587C401.7956,130.5233,401.7771,130.9663,401.7453,131.4083Zm-161.04-45.8922a89.2771,89.2771,0,0,1,11.2876.7137c1.1372.1449,2.2649.3187,3.3875.5063.32.0535.6392.1115.9585.1685q1.3.2319,2.5852.5016c.2795.0585.56.1135.8391.1747q1.6443.3615,3.2649.7808c.1951.0507.387.1075.5813.1595q1.3491.3612,2.68.7636.47.1419.9372.2888,1.3216.4155,2.6238.87c.1892.0662.3809.1277.57.1951q1.5575.5565,3.0847,1.171c.2578.1032.5125.2119.7691.3175q1.1873.4887,2.3562,1.01c.2844.127.5693.2531.852.3829.9963.4576,1.9858.927,2.9607,1.42.3958.2.7842.4118,1.1765.6176s.7879.4062,1.1765.6177q-.0153.69.0039,1.3834a28.3162,28.3162,0,0,0,.4261,4.1766l12.87,74.67a46.7056,46.7056,0,0,0,10.0452,21.71,47.2077,47.2077,0,0,0,4.1272,4.3523,49.24,49.24,0,0,0,15.4878,9.7077v85.34c0,.8648-.0278,1.7234-.0689,2.5787-.0068.1422-.0092.2844-.018.4267-.022.3941-.0635.7832-.0943,1.1751-.041.54-.0759,1.0824-.1337,1.6182-.06.5548-.1441,1.1028-.2212,1.6527-.0511.3646-.09.7327-.148,1.095q-.2213,1.37-.5107,2.7176c-.0352.1616-.08.32-.1165.481-.1245.5536-.262,1.1026-.4011,1.6509-.0459.1782-.0825.36-.13.5375-.094.3475-.2046.6885-.3061,1.0329-.13.4462-.2574.8933-.399,1.3349-.0251.081-.0466.1636-.0727.2442-.1411.4327-.3.8577-.4524,1.2855-.15.4233-.2918.85-.4517,1.2686-.1887.4934-.3967.9778-.5993,1.4647-.1333.32-.2608.6436-.3987.9618-.01.022-.0181.0447-.0276.0667-.231.5234-.48,1.0373-.7271,1.5525-.143.2993-.2785.6025-.4272.899-.1262.2519-.26.5-.39.75s-.2683.4985-.4026.7478c-.1245.23-.2447.4632-.3723.6917-.1458.2609-.2925.5212-.4424.78-.2283.393-.4673.7794-.7051,1.1666-.105.1708-.2041.3449-.311.5145-.08.1279-.156.2585-.2373.3856-.4258.6649-.87,1.3182-1.3235,1.9646-.1448.2064-.2935.41-.4412.6147-.1706.236-.3489.4665-.5229.7-.19.254-.3755.5108-.5694.7617-.14.181-.2773.3635-.4194.5428-.2056.26-.4229.51-.6328.7665-.303.3692-.6.7434-.9121,1.1051-.0862.1-.1761.1962-.2627.2951q-.6929.79-1.4155,1.5558-.2344.2484-.4717.4939-.7362.762-1.5,1.4985c-.0888.0855-.175.1734-.2644.2585q-.9063.8606-1.8523,1.6821c-.135.1177-.2732.2319-.4092.3483q-.7745.6626-1.5739,1.299c-.1568.1249-.313.2507-.4712.3741l-.0254.0192q-1.9753,1.5385-4.0889,2.9137l-.0044.0028c-.1706.111-.3427.22-.5146.3292q-.8918.5668-1.8057,1.1035c-.135.079-.2676.1607-.4031.2387q-1.1085.6388-2.248,1.2324c-.1216.0633-.2454.1227-.3674.1851-.5669.29-1.1419.5675-1.72.84-.0774.0365-.1526.0763-.23.1124-.1954.091-.39.1817-.5865.2707-.7273.33-1.4612.6487-2.2046.9506-.0512.0208-.101.0434-.1523.0642-.3535.1425-.7163.2677-1.0732.4038-.4505.17-.897.3475-1.3521.5085-.1968.07-.3957.1356-.5937.2033q-.9753.3334-1.9664.6348c-.2009.0611-.4008.1244-.603.1835-.8308.2433-1.668.4727-2.5139.6814-.0989.0244-.2.0448-.2986.0687-.6164.1487-1.24.281-1.8638.4106-.1333.0278-.2646.0608-.3984.0878q-.3585.072-.7192.14-1.0635.201-2.1407.365c-.166.0253-.33.0547-.497.0787q-1.3012.1872-2.6209.3181c-.2126.0213-.427.0369-.64.056q-1.0414.0935-2.0932.152c-.2537.0142-.5074.029-.7622.04-.8448.0366-1.6932.0593-2.5467.0615-.0532,0-.1054.0038-.1587.0038h-3.06c-.08-.0014-.1655-.0048-.2461-.0066-1.5015-.0324-3.1716-.1168-4.9827-.2828-.0913-.0084-.1782-.0142-.27-.023l-.032-.0032q-.7295-.07-1.4878-.1588l-.1182-.0146c-.1062-.0126-.2168-.0286-.3237-.0418-.374-.0462-.7488-.0928-1.1323-.1466-.0623-.0087-.1255-.0183-.1878-.0272-.1452-.0208-.2956-.0459-.4421-.0678-.3306-.0493-.66-.0974-.9966-.1527-.0845-.0138-.1694-.0287-.2541-.0429-.0315-.0053-.0643-.0117-.096-.0171-.4358-.0737-.8752-.1513-1.3208-.2355-.1069-.02-.2148-.0414-.3218-.0622-.4143-.08-.8337-.1669-1.2558-.2569-.0437-.0093-.0865-.0171-.13-.0266-.1311-.0282-.2629-.0573-.3947-.0864q-.6725-.149-1.3575-.3152-.2307-.0559-.4619-.1137-.6512-.1628-1.3127-.3429c-.18-.0487-.3594-.0974-.54-.1481-.143-.04-.2888-.0849-.4323-.1262-.2779-.08-.555-.1593-.8345-.2435-.2051-.0617-.41-.1227-.6157-.1869-.4014-.125-.8062-.2577-1.2114-.3924-.2349-.0781-.4693-.1549-.7056-.2364-.3731-.1286-.75-.2655-1.1257-.4027-.2713-.0988-.5413-.1958-.8138-.2993-.2841-.1078-.5708-.224-.8567-.3369-.0515-.0206-.103-.04-.1545-.0608-.3159-.1258-.6309-.249-.9482-.3812-.0779-.0324-.1565-.0683-.2347-.1011l-.0732-.0316a14.6651,14.6651,0,0,1-2.3186-1.3184,14.4439,14.4439,0,0,1-2.74-2.55,21.2456,21.2456,0,0,1-4.59-11.75c-.03-.47-.05-.93-.05-1.38v-.03a21.8529,21.8529,0,0,1,5.42-14.18l-.0063-.0063c.032-.035.0637-.0684.0957-.1033.6177-.6719,1.229-1.32,1.8262-1.9382q.1494-.1548.2971-.3069c.2793-.2871.5569-.5711.8269-.8433l.0718-.0728c2.4614-2.4789,4.47-4.3,5.0991-4.863l.0256-.0229.0818-.073.1023-.09c.49-.4326.9614-.8448,1.4211-1.2455.14-.1217.274-.2381.4107-.3569.3166-.2751.6282-.545.93-.8055q.2183-.1879.4316-.3717.4586-.3944.895-.7677c.1038-.0886.2105-.18.3123-.267.3845-.3281.76-.6475,1.1179-.9516.4868-.4136.9478-.8043,1.3879-1.1777.4117-.3493.81-.688,1.1831-1.0064a16.5215,16.5215,0,0,0,3.74-3.7659q.0988-.137.1946-.2758c.2566-.3712.5044-.75.7332-1.1432l.0019-.0036c.228-.3926.4365-.8.6353-1.213q.0757-.1573.1484-.3163c.1909-.4167.3718-.84.5315-1.2746l.0063-.0174c.1592-.4347.2964-.8808.4231-1.332q.0485-.1723.0935-.346c.1189-.4579.2273-.9207.3116-1.3933l.0014-.0081c.0838-.4716.1431-.9523.1909-1.4368.012-.1226.0228-.2452.0325-.3685.0386-.489.065-.9816.0652-1.4814l0-.0041c0-.537-.03-1.0659-.074-1.59-.013-.1554-.0315-.3084-.0486-.4626q-.063-.5775-.16-1.1425c-.0258-.15-.05-.3-.0791-.449a18.2386,18.2386,0,0,0-.8315-2.9146c-.0523-.1382-.1094-.2731-.1648-.4094q-.208-.5118-.4451-1.0052c-.0632-.1317-.1245-.2641-.1909-.3937a17.4252,17.4252,0,0,0-1.5351-2.4736c-.0855-.1149-.1749-.2256-.2627-.3381q-.3289-.42-.6812-.8152c-.0942-.1059-.1868-.2128-.2834-.316-.3243-.3461-.6575-.6818-1.0081-.9967l-.01-.0094c-.35-.3145-.7172-.6073-1.0922-.8886-.1116-.0838-.2261-.1625-.34-.2433q-.4258-.3027-.87-.5754c-.1189-.0731-.2366-.1476-.3572-.2174-.407-.235-.8208-.4574-1.2476-.6538a14.6989,14.6989,0,0,0-6.1679-1.3552q-5.1753.5738-10.3484.8607t-10.3455.2868c-2.5859,0-5.1719-.0717-7.7578-.1793-4.31-.1793-8.6189-.49-12.9282-.9682h0c-.4936,0-.98.0323-1.4619.08-.1423.0141-.2827.0344-.4241.0526q-.5318.0686-1.0515.1745c-.1377.0281-.2756.0539-.4118.0858a14.8062,14.8062,0,0,0-2.6795.9049c-.1262.0566-.25.1182-.3745.1782q-.4713.2269-.926.4854c-.12.0683-.241.1347-.3594.2063a15.8467,15.8467,0,0,0-2.2747,1.6714c-.1047.0923-.2058.1886-.3083.2838q-.3872.3591-.752.7439c-.0964.1016-.1938.2016-.2878.3058a17.0751,17.0751,0,0,0-1.7417,2.2981c-.0767.1211-.1489.2452-.2229.3685q-.2783.4644-.5293.9488c-.0669.129-.135.2566-.199.3876-.216.4429-.42.8935-.6008,1.3583q-.3006.774-.5327,1.5851a18.6737,18.6737,0,0,0-.7119,5.1307q0,.5634.0327,1.1181a18.7309,18.7309,0,0,0,.22,1.937c.0081.05.0137.1013.0223.1514.1042.6038.2419,1.1942.4023,1.7739.02.0745.0388.15.06.2238.1629.5606.354,1.1068.5667,1.641.0332.0836.0654.1673.1.25q.326.7842.721,1.5241c.0437.0821.0876.1633.1325.2445q.4044.7319.8709,1.4152c.05.0727.1011.1435.1518.2152.3216.4547.6607.8933,1.022,1.31.0483.056.0989.1092.148.1645a16.5258,16.5258,0,0,0,1.1833,1.2082c.0352.0323.0723.0619.1077.0939a16.0727,16.0727,0,0,0,1.3659,1.1069l.0022.0017h-.02c.7686.6563,1.6218,1.3772,2.5674,2.18,1.2605,1.07,2.6851,2.285,4.2925,3.685q.6027.525,1.24,1.0853l.0271.024.0242.0214.0141.0123c.035.0311.0816.0724.1448.129l.0025.0022c.06.054.1379.1234.2221.1994l.0589.0529c.0742.0671.1591.1443.2485.2256l.0957.0869c.7349.67,1.9043,1.759,3.2954,3.1255q.2823.2777.5772.5711c.1118.1113.2216.22.3359.3344q.4713.4725.9644.9778c.0686.07.1389.1434.208.2145q.4541.4681.92.9592c.0544.0573.1089.1144.1633.1723q.5592.592,1.1274,1.2115c.04.05.09.1.13.15a21.8779,21.8779,0,0,1,5.29,14.03v.03c0,.45-.02.91-.05,1.38a21.2456,21.2456,0,0,1-4.59,11.75,14.5387,14.5387,0,0,1-2.75,2.55,13.8358,13.8358,0,0,1-2.3013,1.3072c-.1472.0623-.2959.13-.4429.1909-.177.0733-.353.1415-.53.2128-.0927.0375-.1848.0721-.2775.1093-.367.1463-.7347.2945-1.0989.4324-.22.0829-.438.1611-.657.2413q-.4947.1814-.9863.3529c-.0786.0276-.1582.0577-.2366.0847-.2456.0846-.489.1645-.7329.2454-.3787.1257-.7566.2494-1.1316.3666-.2581.08-.5137.1571-.7695.2337-.0633.0189-.1258.0363-.1888.0551-.2932.0868-.5864.1741-.8772.2559-.2612.0735-.5207.1442-.78.2138q-.5208.14-1.0362.2707-.3783.0954-.7531.1853-.5179.1243-1.0286.2388-.3641.0816-.7249.1588l-.0566.0116q-.49.1038-.9736.1991c-.2222.0438-.4444.0873-.6641.1285-.3545.0663-.7046.1282-1.0527.1877-.2017.0346-.4038.07-.6035.102-.3648.0592-.7242.1135-1.0811.1657-.1741.0255-.3491.052-.521.0758-.3848.0534-.7632.1015-1.1384.1473-.137.0169-.2754.0348-.4109.0507-.4075.0473-.8071.0893-1.2022.1283-.0979.01-.198.0208-.2954.03-.3086.0293-.6074.0528-.9079.0774-.1236.01-.2515.0225-.3738.0319-.053.0041-.1082.0093-.1609.0132-.3794.0282-.7473.0506-1.1125.072-.08.0047-.1636.0113-.2425.0157l-.0346.0022c-.23.0127-.448.02-.6722.03q-.5376.0245-1.0527.0408c-.2969.0091-.5959.0188-.88.0239h-3.06c-.9065,0-1.8064-.0264-2.7031-.0653-.2551-.011-.5093-.0259-.7634-.04q-1.05-.0585-2.09-.1518c-.2146-.0193-.43-.0349-.644-.0564q-1.3173-.132-2.617-.3176c-.1687-.0244-.3352-.0539-.5031-.08q-1.0716-.1632-2.13-.3631c-.2437-.046-.4876-.0929-.73-.1418q-1.1276-.2273-2.2395-.4935c-.1062-.0256-.2139-.0477-.32-.0738-.8428-.2079-1.677-.4365-2.5049-.6789-.2063-.06-.4106-.125-.616-.1875q-.9818-.2988-1.9482-.6291c-.2029-.0694-.4067-.137-.6086-.2084-.8128-.2875-1.6189-.5879-2.4143-.9082-.0577-.0234-.1143-.0486-.1714-.0722-.7376-.3-1.4659-.616-2.1875-.9432-.1985-.09-.3958-.1819-.5931-.2739q-.9835-.459-1.9467-.9508c-.1219-.0623-.2454-.1217-.3667-.1848q-1.1422-.5944-2.2534-1.2354c-.1292-.0744-.2557-.1523-.3846-.2277q-.9279-.5441-1.8325-1.12c-.1638-.1042-.3279-.2079-.49-.3135l-.0246-.0167q-2.127-1.3836-4.1172-2.9353l-.0064-.0049c-.1416-.11-.2812-.2231-.4216-.3348-.3044-.2419-.5994-.4938-.8984-.7414-.2508-.2076-.5061-.41-.7532-.6213-.1135-.0974-.229-.1928-.3418-.2911l-.0383-.0348q-.9471-.8256-1.8579-1.6871c-.0577-.0549-.1133-.1119-.1707-.167-.3972-.3808-.7815-.7735-1.1667-1.1652-.1465-.1486-.2981-.2923-.4429-.4424q-.2-.2078-.3987-.4174c-.084-.0889-.1633-.1819-.2468-.2713-.44-.4711-.8775-.9441-1.3006-1.4292-.0463-.0532-.0947-.105-.1408-.1584-.0447-.0516-.086-.1061-.13-.1579q-.754-.8772-1.4719-1.7828c-.11-.1388-.2163-.28-.325-.42q-.5819-.75-1.136-1.52c-.0219-.03-.0454-.0595-.0671-.09-.1208-.1677-.2427-.3344-.3616-.5034-.4734-.6726-.9353-1.3529-1.3784-2.0457-.0366-.0569-.07-.1156-.1064-.1726-.0987-.1555-.1885-.3163-.2857-.4727-.2949-.4768-.5888-.954-.87-1.4392-.1271-.22-.2517-.441-.3757-.6624-.2219-.3952-.4331-.7963-.645-1.1973-.0713-.135-.147-.2679-.2173-.4035-.1064-.2056-.2168-.409-.3205-.616-.1517-.3016-.2891-.6105-.4351-.915-.262-.5465-.5242-1.0926-.7678-1.6482-.1358-.3093-.2586-.6247-.3887-.9367-.2275-.5464-.4556-1.0926-.6653-1.647-.13-.3432-.2466-.692-.37-1.0382-.1887-.5307-.3777-1.0612-.55-1.599-.1208-.3781-.2287-.7614-.3415-1.1428-.1519-.5137-.3045-1.0272-.4414-1.5467-.1077-.41-.2024-.8241-.3006-1.2373-.1191-.5-.2387-1-.3435-1.5058-.0329-.1584-.06-.3188-.09-.4782-.0547-.2773-.1063-.5555-.1568-.8342-.0893-.493-.1787-.986-.2544-1.4834-.0686-.45-.1245-.9029-.1816-1.3558-.0628-.4974-.1243-.995-.1734-1.4964-.0439-.4528-.0764-.9087-.1091-1.3646-.0366-.5118-.0713-1.0241-.0933-1.54-.0034-.08-.0034-.16-.0065-.24-.0284-.6883-.055-1.377-.055-2.0719v-85.34q1.4166-.5572,2.783-1.1951c.3049-.1416.5981-.3.8994-.4475.6-.2931,1.2-.5853,1.7842-.9.3486-.1881.685-.3925,1.028-.5883.5208-.2972,1.0425-.5923,1.55-.9069.3569-.2213.7021-.4566,1.0522-.6864.4751-.3117.9507-.6225,1.4131-.9494.3523-.2492.6938-.51,1.0388-.7679.4417-.33.8823-.6613,1.3113-1.0056.34-.2728.6706-.555,1.0027-.8364.4138-.3509.8247-.7041,1.2253-1.0681.3245-.2946.6411-.5961.9568-.8992.3872-.3716.7695-.7472,1.1431-1.1311q.4592-.4716.9033-.956.5427-.5891,1.0637-1.1952.4289-.4988.8442-1.0079c.3365-.4141.6631-.8351.9852-1.26.2631-.3478.5246-.6962.7778-1.0512.3125-.4378.6123-.8837.9094-1.3323.2383-.36.4773-.7182.7056-1.0845.2881-.4628.5608-.9348.8327-1.4079.212-.3688.4273-.7348.6292-1.11.2649-.4924.5115-.9952.7585-1.4979.1824-.3705.3714-.7367.544-1.1127.2451-.5342.4678-1.08.6928-1.6248.1482-.3586.3062-.7118.4456-1.0749.2339-.61.4412-1.2321.65-1.854.1045-.3111.2216-.6161.32-.93.2933-.9414.56-1.8945.7942-2.8609.05-.2063.0826-.4194.13-.6268.1809-.7944.3572-1.5906.497-2.4l5.8282-33.814,7.042-40.856,0-.0047c.11-.62.189-1.2407.2549-1.8608q.0254-.2364.0464-.4728c.0549-.6129.0974-1.2255.1155-1.8372l0-.0053q.0205-.6953.0125-1.3892a87.8091,87.8091,0,0,1,42.08-10.65ZM106.219,196.4945q-1.2246.3581-2.4314.6105c-.12.0251-.2425.0576-.3621.0811-.2375.0463-.4829.0828-.7244.1243a33.1927,33.1927,0,0,1-3.7487.434q-.7753.0438-1.5669.0517a32.1074,32.1074,0,0,1-11.6284-2.0374c-.1983-.0751-.3965-.15-.5943-.23a29.4479,29.4479,0,0,1-13.5273-11.0626l-8.9522-13.275L45.0857,145.0962a27.5665,27.5665,0,0,1-2.94-25.73,28.7852,28.7852,0,0,1,4.2112-7.4022,29.78,29.78,0,0,1,11.6018-8.8778,32.0678,32.0678,0,0,1,3.987-1.44l60.85-17.39c.1663-.0475.3335-.0831.5-.1247a14.5586,14.5586,0,0,1,3.5195-.4453h.0005c.3806,0,.759.0184,1.1357.0493.1226.01.2437.0287.3655.042.2539.0276.5071.0578.7583.1.1428.0236.2842.054.4263.0822.2285.0454.4565.0941.6826.1512.147.0371.2925.0781.4382.12q.3293.0948.6536.2062c.1436.0493.2866.0994.4285.1535.2185.0832.4343.1746.6486.2692.1331.0587.2669.1152.3982.1781.232.1112.46.2334.6861.358.1079.0593.2175.1136.3242.176.33.1932.655.3982.9717.62q.5035.3531.9822.7545a13.7822,13.7822,0,0,1,1.62,1.62,12.2364,12.2364,0,0,1,2.84,10.25l-1.105,6.4275-1.2949,7.5325-2.9421,17.06-7.5281,43.65c-.0068.04-.0161.0774-.0232.117q-.1217.6858-.2683,1.3511c-.0388.1749-.085.3436-.1265.5162-.0732.304-.1455.609-.2268.9061-.053.1933-.1125.3807-.1687.5711-.0791.2678-.157.5364-.2427.7985-.0642.1972-.1342.3892-.2021.5831-.0867.2476-.1729.4957-.2651.738-.074.194-.1529.3834-.23.5741-.0952.2345-.1906.4687-.2912.6981-.0825.1885-.1687.3732-.2549.5583-.1035.2232-.2083.4455-.3169.6638-.0906.1824-.1841.362-.2783.5411q-.1677.32-.3418.6326-.1476.2637-.3.5221-.18.3054-.366.6038-.1575.252-.3188.4993-.1933.2952-.3936.5825c-.11.1584-.22.3166-.3323.4719-.1381.19-.2793.3769-.4211.5624-.1145.15-.2285.3-.3455.4462-.1464.1837-.2966.3629-.447.5417-.1181.1406-.2356.2822-.3559.42-.1578.18-.3191.3549-.4808.53-.1179.1279-.2343.2578-.3542.3829-.1743.1822-.353.3583-.5315.5348-.1121.111-.2224.2248-.3359.3336-.2012.1924-.4065.3778-.6118.5632-.0957.0863-.1893.176-.2859.2608q-.9258.8134-1.9026,1.536a31.7565,31.7565,0,0,1-7.9673,4.2858C107.6177,196.0694,106.9175,196.29,106.219,196.4945Zm141.16,183.9948c-.0149.0358-.0322.07-.0474.1059a26.5282,26.5282,0,0,1-3.3408,5.7375,27.6344,27.6344,0,0,1-3.2732,3.596,29.0147,29.0147,0,0,1-19.7,7.59c-15.1,0-27.4666-11.3007-28.2972-25.4926h.0052c.98-.15,1.93-.32,2.87-.51q2.46-.48,4.74-1.08c.0273-.0057.0571-.0138.0844-.02q1.0782-.2262,2.2056-.51c.07-.0176.1375-.032.2078-.05q1.1766-.3,2.4-.6681c.052-.0156.1018-.0282.154-.044,1.7442-.53,3.5481-1.1633,5.4-1.9353a57.5,57.5,0,0,0,10.238-5.5286v.006c1.3137.8888,2.7922,1.81,4.428,2.7166a56.6656,56.6656,0,0,0,5.8039,2.806c.9292.3867,1.8448.736,2.7491,1.0592.0258.0093.0507.0164.0766.0256q1.3064.465,2.57.8475c.0743.0225.1453.0405.2193.0626q1.1865.3558,2.3315.6488c.0957.0245.1873.0441.2825.0679.7229.18,1.4329.3464,2.1257.492.0337.0071.07.0168.1031.0238q2.28.6,4.74,1.08c.93.19,1.89.36,2.86.51h0a25.6868,25.6868,0,0,1-1.8589,8.2628C247.43,380.3552,247.4065,380.4233,247.3789,380.4893Z"/>
        <g>
          <g>
            <rect class="cls-12" x="157.4233" y="327.9259" width="10.2549" height="10.2549" rx="5.1274"/>
            <g>
              <rect class="cls-12" x="139.1745" y="305.2714" width="10.2549" height="10.2549" rx="5.1274"/>
              <rect class="cls-12" x="175.6722" y="305.2714" width="10.2549" height="10.2549" rx="5.1274"/>
            </g>
          </g>
          <g>
            <rect class="cls-12" x="274.3817" y="327.9259" width="10.2549" height="10.2549" rx="5.1274"/>
            <g>
              <rect class="cls-12" x="256.1329" y="305.2714" width="10.2549" height="10.2549" rx="5.1274"/>
              <rect class="cls-12" x="292.6305" y="305.2714" width="10.2549" height="10.2549" rx="5.1274"/>
            </g>
          </g>
        </g>
        <g class="cls-14">
          <path class="cls-13" d="M200.9519,280.9269a106.4,106.4,0,0,0,40.156,0c4.24-.9158,6.3489,2.3889,3.3582,5.1011a146.7345,146.7345,0,0,1-19.87,14.187,7.0414,7.0414,0,0,1-6.7622.0184,147.6479,147.6479,0,0,1-20.2117-14.18C194.5926,283.3445,196.6931,280.0057,200.9519,280.9269Z"/>
        </g>
      </g>
    </g>
  </g>
</svg>
